<?xml version="1.0" encoding="utf-8"?>
<!-- Generator: Adobe Illustrator 19.0.0, SVG Export Plug-In . SVG Version: 6.00 Build 0)  -->
<svg version="1.1" id="Layer_1" xmlns="http://www.w3.org/2000/svg" xmlns:xlink="http://www.w3.org/1999/xlink" x="0px" y="0px"
	 viewBox="0 0 1920 1080" style="enable-background:new 0 0 1920 1080;" xml:space="preserve">
<style type="text/css">
	.st0{fill:#000029;}
	.st1{opacity:5.000000e-02;}
	.st2{fill:#FFFFFF;}
	.st3{fill:none;}
</style>
<rect id="XMLID_3852_" x="-165.3" y="-94" class="st0" width="2250.5" height="1265.9"/>
<g id="XMLID_3121_" class="st1">
	
		<rect id="XMLID_3690_" x="-156.8" y="603.8" transform="matrix(0.9922 -0.1247 0.1247 0.9922 -77.9725 -6.9664)" class="st2" width="124.4" height="31.6"/>
	
		<rect id="XMLID_3689_" x="-23.7" y="587" transform="matrix(0.9922 -0.1247 0.1247 0.9922 -74.8476 9.5057)" class="st2" width="124.4" height="31.6"/>
	
		<rect id="XMLID_3688_" x="109.6" y="570.8" transform="matrix(0.9922 -0.1247 0.1247 0.9922 -71.8192 25.4692)" class="st2" width="116.1" height="31.6"/>
	
		<rect id="XMLID_3687_" x="234.5" y="555.6" transform="matrix(0.9922 -0.1247 0.1247 0.9922 -68.9837 40.4156)" class="st2" width="107.8" height="31.6"/>
	
		<rect id="XMLID_3686_" x="351.3" y="541.5" transform="matrix(0.9922 -0.1247 0.1247 0.9922 -66.3412 54.3447)" class="st2" width="99.5" height="31.6"/>
	
		<rect id="XMLID_3685_" x="459.8" y="528.4" transform="matrix(0.9922 -0.1247 0.1247 0.9922 -63.8917 67.2568)" class="st2" width="91.2" height="31.6"/>
	
		<rect id="XMLID_3684_" x="560.2" y="516.3" transform="matrix(0.9922 -0.1247 0.1247 0.9922 -61.6351 79.1516)" class="st2" width="82.9" height="31.6"/>
	
		<rect id="XMLID_3683_" x="652.3" y="505.2" transform="matrix(0.9922 -0.1247 0.1247 0.9922 -59.5715 90.0293)" class="st2" width="74.7" height="31.6"/>
	
		<rect id="XMLID_3682_" x="736.1" y="495.2" transform="matrix(0.9922 -0.1247 0.1247 0.9922 -57.7009 99.8899)" class="st2" width="66.4" height="31.6"/>
	
		<rect id="XMLID_3681_" x="-151.1" y="646" transform="matrix(0.9922 -0.1247 0.1247 0.9922 -83.6113 -5.8967)" class="st2" width="124.4" height="38.2"/>
	
		<rect id="XMLID_3680_" x="-17.9" y="629.3" transform="matrix(0.9922 -0.1247 0.1247 0.9922 -80.4864 10.5754)" class="st2" width="124.4" height="38.2"/>
	
		<rect id="XMLID_3679_" x="115.3" y="613.1" transform="matrix(0.9922 -0.1247 0.1247 0.9922 -77.458 26.5389)" class="st2" width="116.1" height="38.2"/>
	
		<rect id="XMLID_3678_" x="240.3" y="597.9" transform="matrix(0.9922 -0.1247 0.1247 0.9922 -74.6225 41.4853)" class="st2" width="107.8" height="38.2"/>
	
		<rect id="XMLID_3677_" x="357" y="583.8" transform="matrix(0.9922 -0.1247 0.1247 0.9922 -71.98 55.4145)" class="st2" width="99.5" height="38.2"/>
	
		<rect id="XMLID_3676_" x="465.6" y="570.6" transform="matrix(0.9922 -0.1247 0.1247 0.9922 -69.5305 68.3265)" class="st2" width="91.2" height="38.2"/>
	
		<rect id="XMLID_3675_" x="565.9" y="558.6" transform="matrix(0.9922 -0.1247 0.1247 0.9922 -67.2739 80.2214)" class="st2" width="82.9" height="38.2"/>
	
		<rect id="XMLID_3674_" x="658" y="547.5" transform="matrix(0.9922 -0.1247 0.1247 0.9922 -65.2103 91.0991)" class="st2" width="74.7" height="38.2"/>
	
		<rect id="XMLID_3673_" x="741.9" y="537.5" transform="matrix(0.9922 -0.1247 0.1247 0.9922 -63.3396 100.9596)" class="st2" width="66.4" height="38.2"/>
	
		<rect id="XMLID_3672_" x="-144.7" y="694.9" transform="matrix(0.9922 -0.1247 0.1247 0.9922 -89.9621 -4.6919)" class="st2" width="124.4" height="43.2"/>
	
		<rect id="XMLID_3671_" x="-11.5" y="678.2" transform="matrix(0.9922 -0.1247 0.1247 0.9922 -86.8371 11.7802)" class="st2" width="124.4" height="43.2"/>
	
		<rect id="XMLID_3670_" x="121.7" y="662" transform="matrix(0.9922 -0.1247 0.1247 0.9922 -83.8087 27.7437)" class="st2" width="116.1" height="43.2"/>
	
		<rect id="XMLID_3669_" x="246.7" y="646.8" transform="matrix(0.9922 -0.1247 0.1247 0.9922 -80.9733 42.6901)" class="st2" width="107.8" height="43.2"/>
	
		<rect id="XMLID_3668_" x="363.5" y="632.6" transform="matrix(0.9922 -0.1247 0.1247 0.9922 -78.3307 56.6193)" class="st2" width="99.5" height="43.2"/>
	
		<rect id="XMLID_3667_" x="472" y="619.5" transform="matrix(0.9922 -0.1247 0.1247 0.9922 -75.8812 69.5313)" class="st2" width="91.2" height="43.2"/>
	
		<rect id="XMLID_3666_" x="572.3" y="607.4" transform="matrix(0.9922 -0.1247 0.1247 0.9922 -73.6246 81.4261)" class="st2" width="82.9" height="43.2"/>
	
		<rect id="XMLID_3665_" x="664.4" y="596.4" transform="matrix(0.9922 -0.1247 0.1247 0.9922 -71.561 92.3039)" class="st2" width="74.7" height="43.2"/>
	
		<rect id="XMLID_3664_" x="748.3" y="586.4" transform="matrix(0.9922 -0.1247 0.1247 0.9922 -69.6904 102.1644)" class="st2" width="66.4" height="43.2"/>
	
		<rect id="XMLID_3663_" x="-137.6" y="748.7" transform="matrix(0.9922 -0.1247 0.1247 0.9922 -96.9231 -3.3713)" class="st2" width="124.4" height="48.1"/>
	
		<rect id="XMLID_3662_" x="-4.4" y="732" transform="matrix(0.9922 -0.1247 0.1247 0.9922 -93.7982 13.1008)" class="st2" width="124.4" height="48.1"/>
	
		<rect id="XMLID_3661_" x="128.8" y="715.8" transform="matrix(0.9922 -0.1247 0.1247 0.9922 -90.7698 29.0643)" class="st2" width="116.1" height="48.1"/>
	
		<rect id="XMLID_3660_" x="253.8" y="700.6" transform="matrix(0.9922 -0.1247 0.1247 0.9922 -87.9343 44.0107)" class="st2" width="107.8" height="48.1"/>
	
		<rect id="XMLID_3659_" x="370.6" y="686.4" transform="matrix(0.9922 -0.1247 0.1247 0.9922 -85.2918 57.9398)" class="st2" width="99.5" height="48.1"/>
	
		<rect id="XMLID_3658_" x="479.1" y="673.3" transform="matrix(0.9922 -0.1247 0.1247 0.9922 -82.8423 70.8519)" class="st2" width="91.2" height="48.1"/>
	
		<rect id="XMLID_3657_" x="579.4" y="661.2" transform="matrix(0.9922 -0.1247 0.1247 0.9922 -80.5857 82.7467)" class="st2" width="82.9" height="48.1"/>
	
		<rect id="XMLID_3656_" x="671.5" y="650.2" transform="matrix(0.9922 -0.1247 0.1247 0.9922 -78.5221 93.6244)" class="st2" width="74.7" height="48.1"/>
	
		<rect id="XMLID_3655_" x="755.4" y="640.2" transform="matrix(0.9922 -0.1247 0.1247 0.9922 -76.6515 103.485)" class="st2" width="66.4" height="48.1"/>
	
		<rect id="XMLID_3654_" x="-129.5" y="807.4" transform="matrix(0.9922 -0.1247 0.1247 0.9922 -104.9013 -1.8577)" class="st2" width="124.4" height="59.7"/>
	
		<rect id="XMLID_3653_" x="3.7" y="790.7" transform="matrix(0.9922 -0.1247 0.1247 0.9922 -101.7764 14.6143)" class="st2" width="124.4" height="59.7"/>
	
		<rect id="XMLID_3652_" x="136.9" y="774.5" transform="matrix(0.9922 -0.1247 0.1247 0.9922 -98.748 30.5779)" class="st2" width="116.1" height="59.7"/>
	
		<rect id="XMLID_3651_" x="261.9" y="759.3" transform="matrix(0.9922 -0.1247 0.1247 0.9922 -95.9125 45.5242)" class="st2" width="107.8" height="59.7"/>
	
		<rect id="XMLID_3650_" x="378.7" y="745.1" transform="matrix(0.9922 -0.1247 0.1247 0.9922 -93.27 59.4534)" class="st2" width="99.5" height="59.7"/>
	
		<rect id="XMLID_3649_" x="487.2" y="732" transform="matrix(0.9922 -0.1247 0.1247 0.9922 -90.8205 72.3654)" class="st2" width="91.2" height="59.7"/>
	
		<rect id="XMLID_3648_" x="587.5" y="719.9" transform="matrix(0.9922 -0.1247 0.1247 0.9922 -88.5639 84.2603)" class="st2" width="82.9" height="59.7"/>
	
		<rect id="XMLID_3647_" x="679.6" y="708.9" transform="matrix(0.9922 -0.1247 0.1247 0.9922 -86.5003 95.138)" class="st2" width="74.7" height="59.7"/>
	
		<rect id="XMLID_3646_" x="763.5" y="698.9" transform="matrix(0.9922 -0.1247 0.1247 0.9922 -84.6297 104.9985)" class="st2" width="66.4" height="59.7"/>
	
		<rect id="XMLID_3645_" x="-120.3" y="877.6" transform="matrix(0.9922 -0.1247 0.1247 0.9922 -113.9476 -0.1416)" class="st2" width="124.4" height="65.5"/>
	
		<rect id="XMLID_3644_" x="12.9" y="860.9" transform="matrix(0.9922 -0.1247 0.1247 0.9922 -110.8226 16.3305)" class="st2" width="124.4" height="65.5"/>
	
		<rect id="XMLID_3643_" x="146.1" y="844.7" transform="matrix(0.9922 -0.1247 0.1247 0.9922 -107.7942 32.294)" class="st2" width="116.1" height="65.5"/>
	
		<rect id="XMLID_3642_" x="271.1" y="829.5" transform="matrix(0.9922 -0.1247 0.1247 0.9922 -104.9588 47.2403)" class="st2" width="107.8" height="65.5"/>
	
		<rect id="XMLID_3641_" x="387.9" y="815.4" transform="matrix(0.9922 -0.1247 0.1247 0.9922 -102.3163 61.1695)" class="st2" width="99.5" height="65.5"/>
	
		<rect id="XMLID_3640_" x="496.4" y="802.2" transform="matrix(0.9922 -0.1247 0.1247 0.9922 -99.8667 74.0816)" class="st2" width="91.2" height="65.5"/>
	
		<rect id="XMLID_3639_" x="596.7" y="790.2" transform="matrix(0.9922 -0.1247 0.1247 0.9922 -97.6102 85.9764)" class="st2" width="82.9" height="65.5"/>
	
		<rect id="XMLID_3638_" x="688.8" y="779.1" transform="matrix(0.9922 -0.1247 0.1247 0.9922 -95.5465 96.8541)" class="st2" width="74.7" height="65.5"/>
	
		<rect id="XMLID_3637_" x="772.7" y="769.1" transform="matrix(0.9922 -0.1247 0.1247 0.9922 -93.6759 106.7147)" class="st2" width="66.4" height="65.5"/>
	
		<rect id="XMLID_3636_" x="-110.6" y="952.4" transform="matrix(0.9922 -0.1247 0.1247 0.9922 -123.4959 1.6698)" class="st2" width="124.4" height="70.5"/>
	
		<rect id="XMLID_3635_" x="22.6" y="935.6" transform="matrix(0.9922 -0.1247 0.1247 0.9922 -120.371 18.1419)" class="st2" width="124.4" height="70.5"/>
	
		<rect id="XMLID_3634_" x="155.8" y="919.4" transform="matrix(0.9922 -0.1247 0.1247 0.9922 -117.3425 34.1054)" class="st2" width="116.1" height="70.5"/>
	
		<rect id="XMLID_3633_" x="280.8" y="904.2" transform="matrix(0.9922 -0.1247 0.1247 0.9922 -114.5071 49.0518)" class="st2" width="107.8" height="70.5"/>
	
		<rect id="XMLID_3632_" x="397.5" y="890.1" transform="matrix(0.9922 -0.1247 0.1247 0.9922 -111.8646 62.9809)" class="st2" width="99.5" height="70.5"/>
	
		<rect id="XMLID_3631_" x="506.1" y="877" transform="matrix(0.9922 -0.1247 0.1247 0.9922 -109.415 75.893)" class="st2" width="91.2" height="70.5"/>
	
		<rect id="XMLID_3630_" x="606.4" y="864.9" transform="matrix(0.9922 -0.1247 0.1247 0.9922 -107.1585 87.7878)" class="st2" width="82.9" height="70.5"/>
	
		<rect id="XMLID_3629_" x="698.5" y="853.8" transform="matrix(0.9922 -0.1247 0.1247 0.9922 -105.0949 98.6655)" class="st2" width="74.7" height="70.5"/>
	
		<rect id="XMLID_3628_" x="782.4" y="843.8" transform="matrix(0.9922 -0.1247 0.1247 0.9922 -103.2242 108.5261)" class="st2" width="66.4" height="70.5"/>
	
		<rect id="XMLID_3627_" x="-100.2" y="1033.3" transform="matrix(0.9922 -0.1247 0.1247 0.9922 -133.7627 3.6175)" class="st2" width="124.4" height="74.7"/>
	
		<rect id="XMLID_3626_" x="33" y="1016.6" transform="matrix(0.9922 -0.1247 0.1247 0.9922 -130.6378 20.0896)" class="st2" width="124.4" height="74.7"/>
	
		<rect id="XMLID_3625_" x="166.2" y="1000.3" transform="matrix(0.9922 -0.1247 0.1247 0.9922 -127.6094 36.0531)" class="st2" width="116.1" height="74.7"/>
	
		<rect id="XMLID_3624_" x="291.2" y="985.2" transform="matrix(0.9922 -0.1247 0.1247 0.9922 -124.7739 50.9995)" class="st2" width="107.8" height="74.7"/>
	
		<rect id="XMLID_3623_" x="408" y="971" transform="matrix(0.9922 -0.1247 0.1247 0.9922 -122.1314 64.9287)" class="st2" width="99.5" height="74.7"/>
	
		<rect id="XMLID_3622_" x="516.5" y="957.9" transform="matrix(0.9922 -0.1247 0.1247 0.9922 -119.6819 77.8407)" class="st2" width="91.2" height="74.7"/>
	
		<rect id="XMLID_3621_" x="616.8" y="945.8" transform="matrix(0.9922 -0.1247 0.1247 0.9922 -117.4253 89.7355)" class="st2" width="82.9" height="74.7"/>
	
		<rect id="XMLID_3620_" x="708.9" y="934.8" transform="matrix(0.9922 -0.1247 0.1247 0.9922 -115.3617 100.6133)" class="st2" width="74.7" height="74.7"/>
	
		<rect id="XMLID_3619_" x="792.8" y="924.7" transform="matrix(0.9922 -0.1247 0.1247 0.9922 -113.4911 110.4738)" class="st2" width="66.4" height="74.7"/>
	
		<rect id="XMLID_3618_" x="-88.4" y="1118.3" transform="matrix(0.9922 -0.1247 0.1247 0.9922 -145.301 5.8065)" class="st2" width="124.4" height="91.2"/>
	
		<rect id="XMLID_3617_" x="44.7" y="1101.6" transform="matrix(0.9922 -0.1247 0.1247 0.9922 -142.1761 22.2785)" class="st2" width="124.4" height="91.2"/>
	
		<rect id="XMLID_3616_" x="177.9" y="1085.3" transform="matrix(0.9922 -0.1247 0.1247 0.9922 -139.1476 38.242)" class="st2" width="116.1" height="91.2"/>
	
		<rect id="XMLID_3615_" x="302.9" y="1070.2" transform="matrix(0.9922 -0.1247 0.1247 0.9922 -136.3122 53.1884)" class="st2" width="107.8" height="91.2"/>
	
		<rect id="XMLID_3614_" x="419.7" y="1056" transform="matrix(0.9922 -0.1247 0.1247 0.9922 -133.6697 67.1176)" class="st2" width="99.5" height="91.2"/>
	
		<rect id="XMLID_3613_" x="528.2" y="1042.9" transform="matrix(0.9922 -0.1247 0.1247 0.9922 -131.2201 80.0296)" class="st2" width="91.2" height="91.2"/>
	
		<rect id="XMLID_3612_" x="628.6" y="1030.8" transform="matrix(0.9922 -0.1247 0.1247 0.9922 -128.9636 91.9245)" class="st2" width="82.9" height="91.2"/>
	
		<rect id="XMLID_3611_" x="720.7" y="1019.8" transform="matrix(0.9922 -0.1247 0.1247 0.9922 -126.9 102.8022)" class="st2" width="74.7" height="91.2"/>
	
		<rect id="XMLID_3610_" x="804.5" y="1009.7" transform="matrix(0.9922 -0.1247 0.1247 0.9922 -125.0293 112.6627)" class="st2" width="66.4" height="91.2"/>
	
		<rect id="XMLID_3609_" x="-74.7" y="1219.7" transform="matrix(0.9922 -0.1247 0.1247 0.9922 -158.8736 8.3813)" class="st2" width="124.4" height="107.8"/>
	
		<rect id="XMLID_3608_" x="58.5" y="1203" transform="matrix(0.9922 -0.1247 0.1247 0.9922 -155.7487 24.8534)" class="st2" width="124.4" height="107.8"/>
	
		<rect id="XMLID_3607_" x="191.7" y="1186.8" transform="matrix(0.9922 -0.1247 0.1247 0.9922 -152.7202 40.8169)" class="st2" width="116.1" height="107.8"/>
	
		<rect id="XMLID_3606_" x="316.7" y="1171.6" transform="matrix(0.9922 -0.1247 0.1247 0.9922 -149.8848 55.7632)" class="st2" width="107.8" height="107.8"/>
	
		<rect id="XMLID_3605_" x="433.5" y="1157.5" transform="matrix(0.9922 -0.1247 0.1247 0.9922 -147.2423 69.6924)" class="st2" width="99.5" height="107.8"/>
	
		<rect id="XMLID_3604_" x="542" y="1144.3" transform="matrix(0.9922 -0.1247 0.1247 0.9922 -144.7927 82.6045)" class="st2" width="91.2" height="107.8"/>
	
		<rect id="XMLID_3603_" x="642.3" y="1132.3" transform="matrix(0.9922 -0.1247 0.1247 0.9922 -142.5362 94.4993)" class="st2" width="82.9" height="107.8"/>
	
		<rect id="XMLID_3602_" x="734.4" y="1121.2" transform="matrix(0.9922 -0.1247 0.1247 0.9922 -140.4726 105.377)" class="st2" width="74.7" height="107.8"/>
	
		<rect id="XMLID_3601_" x="818.3" y="1111.2" transform="matrix(0.9922 -0.1247 0.1247 0.9922 -138.6019 115.2376)" class="st2" width="66.4" height="107.8"/>
	
		<rect id="XMLID_3600_" x="812" y="486.2" transform="matrix(0.9922 -0.1247 0.1247 0.9922 -56.0188 108.7565)" class="st2" width="58.1" height="31.6"/>
	
		<rect id="XMLID_3599_" x="879.4" y="478.8" transform="matrix(0.9922 -0.1247 0.1247 0.9922 -54.6306 116.0742)" class="st2" width="41.5" height="31.6"/>
	
		<rect id="XMLID_3598_" x="930.4" y="473.1" transform="matrix(0.9922 -0.1247 0.1247 0.9922 -53.5607 121.7135)" class="st2" width="30.7" height="31.6"/>
	
		<rect id="XMLID_3597_" x="817.7" y="528.5" transform="matrix(0.9922 -0.1247 0.1247 0.9922 -61.6576 109.8262)" class="st2" width="58.1" height="38.2"/>
	
		<rect id="XMLID_3596_" x="885.1" y="521.1" transform="matrix(0.9922 -0.1247 0.1247 0.9922 -60.2693 117.1439)" class="st2" width="41.5" height="38.2"/>
	
		<rect id="XMLID_3595_" x="936.1" y="515.3" transform="matrix(0.9922 -0.1247 0.1247 0.9922 -59.1995 122.7832)" class="st2" width="30.7" height="38.2"/>
	
		<rect id="XMLID_3594_" x="824.1" y="577.3" transform="matrix(0.9922 -0.1247 0.1247 0.9922 -68.0083 111.031)" class="st2" width="58.1" height="43.2"/>
	
		<rect id="XMLID_3593_" x="891.6" y="569.9" transform="matrix(0.9922 -0.1247 0.1247 0.9922 -66.6201 118.3487)" class="st2" width="41.5" height="43.2"/>
	
		<rect id="XMLID_3592_" x="942.6" y="564.2" transform="matrix(0.9922 -0.1247 0.1247 0.9922 -65.5503 123.988)" class="st2" width="30.7" height="43.2"/>
	
		<rect id="XMLID_3591_" x="831.2" y="631.1" transform="matrix(0.9922 -0.1247 0.1247 0.9922 -74.9694 112.3516)" class="st2" width="58.1" height="48.1"/>
	
		<rect id="XMLID_3590_" x="898.7" y="623.7" transform="matrix(0.9922 -0.1247 0.1247 0.9922 -73.5811 119.6693)" class="st2" width="41.5" height="48.1"/>
	
		<rect id="XMLID_3589_" x="949.6" y="618" transform="matrix(0.9922 -0.1247 0.1247 0.9922 -72.5113 125.3086)" class="st2" width="30.7" height="48.1"/>
	
		<rect id="XMLID_3588_" x="839.3" y="689.8" transform="matrix(0.9922 -0.1247 0.1247 0.9922 -82.9476 113.8652)" class="st2" width="58.1" height="59.7"/>
	
		<rect id="XMLID_3587_" x="906.8" y="682.4" transform="matrix(0.9922 -0.1247 0.1247 0.9922 -81.5594 121.1828)" class="st2" width="41.5" height="59.7"/>
	
		<rect id="XMLID_3586_" x="957.8" y="676.7" transform="matrix(0.9922 -0.1247 0.1247 0.9922 -80.4895 126.8222)" class="st2" width="30.7" height="59.7"/>
	
		<rect id="XMLID_3585_" x="848.5" y="760.1" transform="matrix(0.9922 -0.1247 0.1247 0.9922 -91.9938 115.5813)" class="st2" width="58.1" height="65.5"/>
	
		<rect id="XMLID_3584_" x="916" y="752.7" transform="matrix(0.9922 -0.1247 0.1247 0.9922 -90.6056 122.899)" class="st2" width="41.5" height="65.5"/>
	
		<rect id="XMLID_3583_" x="966.9" y="746.9" transform="matrix(0.9922 -0.1247 0.1247 0.9922 -89.5358 128.5383)" class="st2" width="30.7" height="65.5"/>
	
		<rect id="XMLID_3582_" x="858.2" y="834.8" transform="matrix(0.9922 -0.1247 0.1247 0.9922 -101.5422 117.3927)" class="st2" width="58.1" height="70.5"/>
	
		<rect id="XMLID_3581_" x="925.7" y="827.4" transform="matrix(0.9922 -0.1247 0.1247 0.9922 -100.1539 124.7104)" class="st2" width="41.5" height="70.5"/>
	
		<rect id="XMLID_3580_" x="976.6" y="821.6" transform="matrix(0.9922 -0.1247 0.1247 0.9922 -99.0841 130.3497)" class="st2" width="30.7" height="70.5"/>
	
		<rect id="XMLID_3579_" x="868.6" y="915.7" transform="matrix(0.9922 -0.1247 0.1247 0.9922 -111.809 119.3404)" class="st2" width="58.1" height="74.7"/>
	
		<rect id="XMLID_3578_" x="936.1" y="908.3" transform="matrix(0.9922 -0.1247 0.1247 0.9922 -110.4207 126.6581)" class="st2" width="41.5" height="74.7"/>
	
		<rect id="XMLID_3577_" x="987.1" y="902.6" transform="matrix(0.9922 -0.1247 0.1247 0.9922 -109.3509 132.2974)" class="st2" width="30.7" height="74.7"/>
	
		<rect id="XMLID_3576_" x="880.4" y="1000.7" transform="matrix(0.9922 -0.1247 0.1247 0.9922 -123.3472 121.5294)" class="st2" width="58.1" height="91.2"/>
	
		<rect id="XMLID_3575_" x="947.8" y="993.3" transform="matrix(0.9922 -0.1247 0.1247 0.9922 -121.959 128.847)" class="st2" width="41.5" height="91.2"/>
	
		<rect id="XMLID_3574_" x="998.8" y="987.6" transform="matrix(0.9922 -0.1247 0.1247 0.9922 -120.8892 134.4863)" class="st2" width="30.7" height="91.2"/>
	
		<rect id="XMLID_3573_" x="894.1" y="1102.2" transform="matrix(0.9922 -0.1247 0.1247 0.9922 -136.9198 124.1042)" class="st2" width="58.1" height="107.8"/>
	
		<rect id="XMLID_3572_" x="961.6" y="1094.8" transform="matrix(0.9922 -0.1247 0.1247 0.9922 -135.5316 131.4219)" class="st2" width="41.5" height="107.8"/>
	
		<rect id="XMLID_3571_" x="1012.6" y="1089" transform="matrix(0.9922 -0.1247 0.1247 0.9922 -134.4618 137.0612)" class="st2" width="30.7" height="107.8"/>
	
		<rect id="XMLID_3570_" x="-161.9" y="563.8" transform="matrix(0.9922 -0.1247 0.1247 0.9922 -73.0284 -7.9043)" class="st2" width="124.4" height="31.6"/>
	
		<rect id="XMLID_3569_" x="-28.7" y="547.1" transform="matrix(0.9922 -0.1247 0.1247 0.9922 -69.9035 8.5678)" class="st2" width="124.4" height="31.6"/>
	
		<rect id="XMLID_3568_" x="104.5" y="530.8" transform="matrix(0.9922 -0.1247 0.1247 0.9922 -66.8751 24.5313)" class="st2" width="116.1" height="31.6"/>
	
		<rect id="XMLID_3567_" x="229.5" y="515.7" transform="matrix(0.9922 -0.1247 0.1247 0.9922 -64.0396 39.4776)" class="st2" width="107.8" height="31.6"/>
	
		<rect id="XMLID_3566_" x="346.3" y="501.5" transform="matrix(0.9922 -0.1247 0.1247 0.9922 -61.3971 53.4068)" class="st2" width="99.5" height="31.6"/>
	
		<rect id="XMLID_3565_" x="454.8" y="488.4" transform="matrix(0.9922 -0.1247 0.1247 0.9922 -58.9476 66.3188)" class="st2" width="91.2" height="31.6"/>
	
		<rect id="XMLID_3564_" x="555.1" y="476.3" transform="matrix(0.9922 -0.1247 0.1247 0.9922 -56.691 78.2137)" class="st2" width="82.9" height="31.6"/>
	
		<rect id="XMLID_3563_" x="647.2" y="465.3" transform="matrix(0.9922 -0.1247 0.1247 0.9922 -54.6274 89.0914)" class="st2" width="74.7" height="31.6"/>
	
		<rect id="XMLID_3562_" x="731.1" y="455.2" transform="matrix(0.9922 -0.1247 0.1247 0.9922 -52.7568 98.9519)" class="st2" width="66.4" height="31.6"/>
	
		<rect id="XMLID_3561_" x="-167.6" y="514.9" transform="matrix(0.9922 -0.1247 0.1247 0.9922 -67.3897 -8.974)" class="st2" width="124.4" height="38.2"/>
	
		<rect id="XMLID_3560_" x="-34.4" y="498.2" transform="matrix(0.9922 -0.1247 0.1247 0.9922 -64.2648 7.498)" class="st2" width="124.4" height="38.2"/>
	
		<rect id="XMLID_3559_" x="98.8" y="481.9" transform="matrix(0.9922 -0.1247 0.1247 0.9922 -61.2364 23.4615)" class="st2" width="116.1" height="38.2"/>
	
		<rect id="XMLID_3558_" x="223.8" y="466.8" transform="matrix(0.9922 -0.1247 0.1247 0.9922 -58.4009 38.4079)" class="st2" width="107.8" height="38.2"/>
	
		<rect id="XMLID_3557_" x="340.6" y="452.6" transform="matrix(0.9922 -0.1247 0.1247 0.9922 -55.7584 52.3371)" class="st2" width="99.5" height="38.2"/>
	
		<rect id="XMLID_3556_" x="449.1" y="439.5" transform="matrix(0.9922 -0.1247 0.1247 0.9922 -53.3089 65.2491)" class="st2" width="91.2" height="38.2"/>
	
		<rect id="XMLID_3555_" x="549.4" y="427.4" transform="matrix(0.9922 -0.1247 0.1247 0.9922 -51.0523 77.144)" class="st2" width="82.9" height="38.2"/>
	
		<rect id="XMLID_3554_" x="641.5" y="416.4" transform="matrix(0.9922 -0.1247 0.1247 0.9922 -48.9887 88.0217)" class="st2" width="74.7" height="38.2"/>
	
		<rect id="XMLID_3553_" x="725.4" y="406.3" transform="matrix(0.9922 -0.1247 0.1247 0.9922 -47.118 97.8822)" class="st2" width="66.4" height="38.2"/>
	
		<rect id="XMLID_3552_" x="-174" y="461.1" transform="matrix(0.9922 -0.1247 0.1247 0.9922 -61.0389 -10.1788)" class="st2" width="124.4" height="43.2"/>
	
		<rect id="XMLID_3551_" x="-40.9" y="444.3" transform="matrix(0.9922 -0.1247 0.1247 0.9922 -57.914 6.2932)" class="st2" width="124.4" height="43.2"/>
	
		<rect id="XMLID_3550_" x="92.3" y="428.1" transform="matrix(0.9922 -0.1247 0.1247 0.9922 -54.8856 22.2567)" class="st2" width="116.1" height="43.2"/>
	
		<rect id="XMLID_3549_" x="217.3" y="412.9" transform="matrix(0.9922 -0.1247 0.1247 0.9922 -52.0501 37.2031)" class="st2" width="107.8" height="43.2"/>
	
		<rect id="XMLID_3548_" x="334.1" y="398.8" transform="matrix(0.9922 -0.1247 0.1247 0.9922 -49.4076 51.1323)" class="st2" width="99.5" height="43.2"/>
	
		<rect id="XMLID_3547_" x="442.6" y="385.7" transform="matrix(0.9922 -0.1247 0.1247 0.9922 -46.9581 64.0443)" class="st2" width="91.2" height="43.2"/>
	
		<rect id="XMLID_3546_" x="543" y="373.6" transform="matrix(0.9922 -0.1247 0.1247 0.9922 -44.7015 75.9392)" class="st2" width="82.9" height="43.2"/>
	
		<rect id="XMLID_3545_" x="635.1" y="362.5" transform="matrix(0.9922 -0.1247 0.1247 0.9922 -42.6379 86.8169)" class="st2" width="74.7" height="43.2"/>
	
		<rect id="XMLID_3544_" x="718.9" y="352.5" transform="matrix(0.9922 -0.1247 0.1247 0.9922 -40.7673 96.6774)" class="st2" width="66.4" height="43.2"/>
	
		<rect id="XMLID_3543_" x="-181.1" y="402.3" transform="matrix(0.9922 -0.1247 0.1247 0.9922 -54.0779 -11.4994)" class="st2" width="124.4" height="48.1"/>
	
		<rect id="XMLID_3542_" x="-47.9" y="385.6" transform="matrix(0.9922 -0.1247 0.1247 0.9922 -50.953 4.9727)" class="st2" width="124.4" height="48.1"/>
	
		<rect id="XMLID_3541_" x="85.3" y="369.3" transform="matrix(0.9922 -0.1247 0.1247 0.9922 -47.9245 20.9362)" class="st2" width="116.1" height="48.1"/>
	
		<rect id="XMLID_3540_" x="210.3" y="354.2" transform="matrix(0.9922 -0.1247 0.1247 0.9922 -45.0891 35.8825)" class="st2" width="107.8" height="48.1"/>
	
		<rect id="XMLID_3539_" x="327" y="340" transform="matrix(0.9922 -0.1247 0.1247 0.9922 -42.4466 49.8117)" class="st2" width="99.5" height="48.1"/>
	
		<rect id="XMLID_3538_" x="435.6" y="326.9" transform="matrix(0.9922 -0.1247 0.1247 0.9922 -39.997 62.7237)" class="st2" width="91.2" height="48.1"/>
	
		<rect id="XMLID_3537_" x="535.9" y="314.8" transform="matrix(0.9922 -0.1247 0.1247 0.9922 -37.7405 74.6186)" class="st2" width="82.9" height="48.1"/>
	
		<rect id="XMLID_3536_" x="628" y="303.8" transform="matrix(0.9922 -0.1247 0.1247 0.9922 -35.6769 85.4963)" class="st2" width="74.7" height="48.1"/>
	
		<rect id="XMLID_3535_" x="711.9" y="293.7" transform="matrix(0.9922 -0.1247 0.1247 0.9922 -33.8062 95.3568)" class="st2" width="66.4" height="48.1"/>
	
		<rect id="XMLID_3534_" x="-189.2" y="332" transform="matrix(0.9922 -0.1247 0.1247 0.9922 -46.0997 -13.013)" class="st2" width="124.4" height="59.7"/>
	
		<rect id="XMLID_3533_" x="-56" y="315.2" transform="matrix(0.9922 -0.1247 0.1247 0.9922 -42.9747 3.4591)" class="st2" width="124.4" height="59.7"/>
	
		<rect id="XMLID_3532_" x="77.2" y="299" transform="matrix(0.9922 -0.1247 0.1247 0.9922 -39.9463 19.4226)" class="st2" width="116.1" height="59.7"/>
	
		<rect id="XMLID_3531_" x="202.2" y="283.8" transform="matrix(0.9922 -0.1247 0.1247 0.9922 -37.1109 34.369)" class="st2" width="107.8" height="59.7"/>
	
		<rect id="XMLID_3530_" x="318.9" y="269.7" transform="matrix(0.9922 -0.1247 0.1247 0.9922 -34.4684 48.2981)" class="st2" width="99.5" height="59.7"/>
	
		<rect id="XMLID_3529_" x="427.5" y="256.6" transform="matrix(0.9922 -0.1247 0.1247 0.9922 -32.0188 61.2102)" class="st2" width="91.2" height="59.7"/>
	
		<rect id="XMLID_3528_" x="527.8" y="244.5" transform="matrix(0.9922 -0.1247 0.1247 0.9922 -29.7623 73.105)" class="st2" width="82.9" height="59.7"/>
	
		<rect id="XMLID_3527_" x="619.9" y="233.4" transform="matrix(0.9922 -0.1247 0.1247 0.9922 -27.6987 83.9827)" class="st2" width="74.7" height="59.7"/>
	
		<rect id="XMLID_3526_" x="703.7" y="223.4" transform="matrix(0.9922 -0.1247 0.1247 0.9922 -25.828 93.8433)" class="st2" width="66.4" height="59.7"/>
	
		<rect id="XMLID_3525_" x="-198.4" y="255.9" transform="matrix(0.9922 -0.1247 0.1247 0.9922 -37.0534 -14.7291)" class="st2" width="124.4" height="65.5"/>
	
		<rect id="XMLID_3524_" x="-65.2" y="239.2" transform="matrix(0.9922 -0.1247 0.1247 0.9922 -33.9285 1.743)" class="st2" width="124.4" height="65.5"/>
	
		<rect id="XMLID_3523_" x="68" y="223" transform="matrix(0.9922 -0.1247 0.1247 0.9922 -30.9001 17.7065)" class="st2" width="116.1" height="65.5"/>
	
		<rect id="XMLID_3522_" x="193" y="207.8" transform="matrix(0.9922 -0.1247 0.1247 0.9922 -28.0646 32.6528)" class="st2" width="107.8" height="65.5"/>
	
		<rect id="XMLID_3521_" x="309.7" y="193.7" transform="matrix(0.9922 -0.1247 0.1247 0.9922 -25.4221 46.582)" class="st2" width="99.5" height="65.5"/>
	
		<rect id="XMLID_3520_" x="418.3" y="180.5" transform="matrix(0.9922 -0.1247 0.1247 0.9922 -22.9726 59.494)" class="st2" width="91.2" height="65.5"/>
	
		<rect id="XMLID_3519_" x="518.6" y="168.5" transform="matrix(0.9922 -0.1247 0.1247 0.9922 -20.716 71.3889)" class="st2" width="82.9" height="65.5"/>
	
		<rect id="XMLID_3518_" x="610.7" y="157.4" transform="matrix(0.9922 -0.1247 0.1247 0.9922 -18.6524 82.2666)" class="st2" width="74.7" height="65.5"/>
	
		<rect id="XMLID_3517_" x="694.6" y="147.4" transform="matrix(0.9922 -0.1247 0.1247 0.9922 -16.7818 92.1271)" class="st2" width="66.4" height="65.5"/>
	
		<rect id="XMLID_3516_" x="-208.1" y="176.3" transform="matrix(0.9922 -0.1247 0.1247 0.9922 -27.5051 -16.5405)" class="st2" width="124.4" height="70.5"/>
	
		<rect id="XMLID_3515_" x="-74.9" y="159.5" transform="matrix(0.9922 -0.1247 0.1247 0.9922 -24.3802 -6.844772e-02)" class="st2" width="124.4" height="70.5"/>
	
		<rect id="XMLID_3514_" x="58.3" y="143.3" transform="matrix(0.9922 -0.1247 0.1247 0.9922 -21.3518 15.8951)" class="st2" width="116.1" height="70.5"/>
	
		<rect id="XMLID_3513_" x="183.3" y="128.1" transform="matrix(0.9922 -0.1247 0.1247 0.9922 -18.5163 30.8414)" class="st2" width="107.8" height="70.5"/>
	
		<rect id="XMLID_3512_" x="300" y="114" transform="matrix(0.9922 -0.1247 0.1247 0.9922 -15.8738 44.7706)" class="st2" width="99.5" height="70.5"/>
	
		<rect id="XMLID_3511_" x="408.6" y="100.9" transform="matrix(0.9922 -0.1247 0.1247 0.9922 -13.4243 57.6826)" class="st2" width="91.2" height="70.5"/>
	
		<rect id="XMLID_3510_" x="508.9" y="88.8" transform="matrix(0.9922 -0.1247 0.1247 0.9922 -11.1677 69.5775)" class="st2" width="82.9" height="70.5"/>
	
		<rect id="XMLID_3509_" x="601" y="77.7" transform="matrix(0.9922 -0.1247 0.1247 0.9922 -9.1041 80.4552)" class="st2" width="74.7" height="70.5"/>
	
		<rect id="XMLID_3508_" x="684.9" y="67.7" transform="matrix(0.9922 -0.1247 0.1247 0.9922 -7.2335 90.3157)" class="st2" width="66.4" height="70.5"/>
	
		<rect id="XMLID_3507_" x="-218.5" y="91.2" transform="matrix(0.9922 -0.1247 0.1247 0.9922 -17.2383 -18.4882)" class="st2" width="124.4" height="74.7"/>
	
		<rect id="XMLID_3506_" x="-85.4" y="74.4" transform="matrix(0.9922 -0.1247 0.1247 0.9922 -14.1134 -2.0162)" class="st2" width="124.4" height="74.7"/>
	
		<rect id="XMLID_3505_" x="47.9" y="58.2" transform="matrix(0.9922 -0.1247 0.1247 0.9922 -11.0849 13.9473)" class="st2" width="116.1" height="74.7"/>
	
		<rect id="XMLID_3504_" x="172.8" y="43" transform="matrix(0.9922 -0.1247 0.1247 0.9922 -8.2495 28.8937)" class="st2" width="107.8" height="74.7"/>
	
		<rect id="XMLID_3503_" x="289.6" y="28.9" transform="matrix(0.9922 -0.1247 0.1247 0.9922 -5.607 42.8229)" class="st2" width="99.5" height="74.7"/>
	
		<rect id="XMLID_3502_" x="398.1" y="15.8" transform="matrix(0.9922 -0.1247 0.1247 0.9922 -3.1574 55.7349)" class="st2" width="91.2" height="74.7"/>
	
		<rect id="XMLID_3501_" x="498.5" y="3.7" transform="matrix(0.9922 -0.1247 0.1247 0.9922 -0.9009 67.6298)" class="st2" width="82.9" height="74.7"/>
	
		<rect id="XMLID_3500_" x="590.6" y="-7.4" transform="matrix(0.9922 -0.1247 0.1247 0.9922 1.1627 78.5075)" class="st2" width="74.7" height="74.7"/>
	
		<rect id="XMLID_3499_" x="674.4" y="-17.4" transform="matrix(0.9922 -0.1247 0.1247 0.9922 3.0334 88.368)" class="st2" width="66.4" height="74.7"/>
	
		<rect id="XMLID_3498_" x="-230.3" y="-10.4" transform="matrix(0.9922 -0.1247 0.1247 0.9922 -5.7 -20.6772)" class="st2" width="124.4" height="91.2"/>
	
		<rect id="XMLID_3497_" x="-97.1" y="-27.1" transform="matrix(0.9922 -0.1247 0.1247 0.9922 -2.5751 -4.2051)" class="st2" width="124.4" height="91.2"/>
	
		<rect id="XMLID_3496_" x="36.1" y="-43.4" transform="matrix(0.9922 -0.1247 0.1247 0.9922 0.4533 11.7584)" class="st2" width="116.1" height="91.2"/>
	
		<rect id="XMLID_3495_" x="161.1" y="-58.5" transform="matrix(0.9922 -0.1247 0.1247 0.9922 3.2888 26.7048)" class="st2" width="107.8" height="91.2"/>
	
		<rect id="XMLID_3494_" x="277.9" y="-72.7" transform="matrix(0.9922 -0.1247 0.1247 0.9922 5.9313 40.634)" class="st2" width="99.5" height="91.2"/>
	
		<rect id="XMLID_3493_" x="386.4" y="-85.8" transform="matrix(0.9922 -0.1247 0.1247 0.9922 8.3808 53.546)" class="st2" width="91.2" height="91.2"/>
	
		<rect id="XMLID_3492_" x="486.7" y="-97.9" transform="matrix(0.9922 -0.1247 0.1247 0.9922 10.6374 65.4408)" class="st2" width="82.9" height="91.2"/>
	
		<rect id="XMLID_3491_" x="578.8" y="-108.9" transform="matrix(0.9922 -0.1247 0.1247 0.9922 12.701 76.3186)" class="st2" width="74.7" height="91.2"/>
	
		<rect id="XMLID_3490_" x="662.7" y="-119" transform="matrix(0.9922 -0.1247 0.1247 0.9922 14.5716 86.1791)" class="st2" width="66.4" height="91.2"/>
	
		<rect id="XMLID_3489_" x="-244" y="-128.4" transform="matrix(0.9922 -0.1247 0.1247 0.9922 7.8726 -23.252)" class="st2" width="124.4" height="107.8"/>
	
		<rect id="XMLID_3488_" x="-110.9" y="-145.2" transform="matrix(0.9922 -0.1247 0.1247 0.9922 10.9975 -6.7799)" class="st2" width="124.4" height="107.8"/>
	
		<rect id="XMLID_3487_" x="22.3" y="-161.4" transform="matrix(0.9922 -0.1247 0.1247 0.9922 14.0259 9.1836)" class="st2" width="116.1" height="107.8"/>
	
		<rect id="XMLID_3486_" x="147.3" y="-176.6" transform="matrix(0.9922 -0.1247 0.1247 0.9922 16.8614 24.1299)" class="st2" width="107.8" height="107.8"/>
	
		<rect id="XMLID_3485_" x="264.1" y="-190.7" transform="matrix(0.9922 -0.1247 0.1247 0.9922 19.5039 38.0591)" class="st2" width="99.5" height="107.8"/>
	
		<rect id="XMLID_3484_" x="372.6" y="-203.8" transform="matrix(0.9922 -0.1247 0.1247 0.9922 21.9534 50.9711)" class="st2" width="91.2" height="107.8"/>
	
		<rect id="XMLID_3483_" x="473" y="-215.9" transform="matrix(0.9922 -0.1247 0.1247 0.9922 24.21 62.866)" class="st2" width="82.9" height="107.8"/>
	
		<rect id="XMLID_3482_" x="565.1" y="-227" transform="matrix(0.9922 -0.1247 0.1247 0.9922 26.2736 73.7437)" class="st2" width="74.7" height="107.8"/>
	
		<rect id="XMLID_3481_" x="648.9" y="-237" transform="matrix(0.9922 -0.1247 0.1247 0.9922 28.1442 83.6042)" class="st2" width="66.4" height="107.8"/>
	
		<rect id="XMLID_3480_" x="806.9" y="446.2" transform="matrix(0.9922 -0.1247 0.1247 0.9922 -51.0747 107.8186)" class="st2" width="58.1" height="31.6"/>
	
		<rect id="XMLID_3479_" x="874.4" y="438.8" transform="matrix(0.9922 -0.1247 0.1247 0.9922 -49.6865 115.1362)" class="st2" width="41.5" height="31.6"/>
	
		<rect id="XMLID_3478_" x="925.4" y="433.1" transform="matrix(0.9922 -0.1247 0.1247 0.9922 -48.6166 120.7756)" class="st2" width="30.7" height="31.6"/>
	
		<rect id="XMLID_3477_" x="801.2" y="397.3" transform="matrix(0.9922 -0.1247 0.1247 0.9922 -45.436 106.7489)" class="st2" width="58.1" height="38.2"/>
	
		<rect id="XMLID_3476_" x="868.7" y="389.9" transform="matrix(0.9922 -0.1247 0.1247 0.9922 -44.0477 114.0665)" class="st2" width="41.5" height="38.2"/>
	
		<rect id="XMLID_3475_" x="919.6" y="384.2" transform="matrix(0.9922 -0.1247 0.1247 0.9922 -42.9779 119.7058)" class="st2" width="30.7" height="38.2"/>
	
		<rect id="XMLID_3474_" x="794.8" y="343.5" transform="matrix(0.9922 -0.1247 0.1247 0.9922 -39.0852 105.5441)" class="st2" width="58.1" height="43.2"/>
	
		<rect id="XMLID_3473_" x="862.2" y="336.1" transform="matrix(0.9922 -0.1247 0.1247 0.9922 -37.697 112.8617)" class="st2" width="41.5" height="43.2"/>
	
		<rect id="XMLID_3472_" x="913.2" y="330.3" transform="matrix(0.9922 -0.1247 0.1247 0.9922 -36.6271 118.501)" class="st2" width="30.7" height="43.2"/>
	
		<rect id="XMLID_3471_" x="787.7" y="284.7" transform="matrix(0.9922 -0.1247 0.1247 0.9922 -32.1241 104.2235)" class="st2" width="58.1" height="48.1"/>
	
		<rect id="XMLID_3470_" x="855.1" y="277.3" transform="matrix(0.9922 -0.1247 0.1247 0.9922 -30.7359 111.5411)" class="st2" width="41.5" height="48.1"/>
	
		<rect id="XMLID_3469_" x="906.1" y="271.6" transform="matrix(0.9922 -0.1247 0.1247 0.9922 -29.6661 117.1805)" class="st2" width="30.7" height="48.1"/>
	
		<rect id="XMLID_3468_" x="779.6" y="214.4" transform="matrix(0.9922 -0.1247 0.1247 0.9922 -24.1459 102.7099)" class="st2" width="58.1" height="59.7"/>
	
		<rect id="XMLID_3467_" x="847" y="207" transform="matrix(0.9922 -0.1247 0.1247 0.9922 -22.7577 110.0276)" class="st2" width="41.5" height="59.7"/>
	
		<rect id="XMLID_3466_" x="898" y="201.3" transform="matrix(0.9922 -0.1247 0.1247 0.9922 -21.6879 115.6669)" class="st2" width="30.7" height="59.7"/>
	
		<rect id="XMLID_3465_" x="770.4" y="138.4" transform="matrix(0.9922 -0.1247 0.1247 0.9922 -15.0997 100.9938)" class="st2" width="58.1" height="65.5"/>
	
		<rect id="XMLID_3464_" x="837.8" y="130.9" transform="matrix(0.9922 -0.1247 0.1247 0.9922 -13.7115 108.3114)" class="st2" width="41.5" height="65.5"/>
	
		<rect id="XMLID_3463_" x="888.8" y="125.2" transform="matrix(0.9922 -0.1247 0.1247 0.9922 -12.6416 113.9508)" class="st2" width="30.7" height="65.5"/>
	
		<rect id="XMLID_3462_" x="760.7" y="58.7" transform="matrix(0.9922 -0.1247 0.1247 0.9922 -5.5514 99.1824)" class="st2" width="58.1" height="70.5"/>
	
		<rect id="XMLID_3461_" x="828.1" y="51.3" transform="matrix(0.9922 -0.1247 0.1247 0.9922 -4.1631 106.5)" class="st2" width="41.5" height="70.5"/>
	
		<rect id="XMLID_3460_" x="879.1" y="45.5" transform="matrix(0.9922 -0.1247 0.1247 0.9922 -3.0933 112.1394)" class="st2" width="30.7" height="70.5"/>
	
		<rect id="XMLID_3459_" x="750.3" y="-26.4" transform="matrix(0.9922 -0.1247 0.1247 0.9922 4.7155 97.2347)" class="st2" width="58.1" height="74.7"/>
	
		<rect id="XMLID_3458_" x="817.7" y="-33.8" transform="matrix(0.9922 -0.1247 0.1247 0.9922 6.1037 104.5523)" class="st2" width="41.5" height="74.7"/>
	
		<rect id="XMLID_3457_" x="868.7" y="-39.5" transform="matrix(0.9922 -0.1247 0.1247 0.9922 7.1735 110.1916)" class="st2" width="30.7" height="74.7"/>
	
		<rect id="XMLID_3456_" x="738.5" y="-128" transform="matrix(0.9922 -0.1247 0.1247 0.9922 16.2537 95.0457)" class="st2" width="58.1" height="91.2"/>
	
		<rect id="XMLID_3455_" x="806" y="-135.4" transform="matrix(0.9922 -0.1247 0.1247 0.9922 17.642 102.3634)" class="st2" width="41.5" height="91.2"/>
	
		<rect id="XMLID_3454_" x="857" y="-141.1" transform="matrix(0.9922 -0.1247 0.1247 0.9922 18.7118 108.0027)" class="st2" width="30.7" height="91.2"/>
	
		<rect id="XMLID_3453_" x="724.8" y="-246" transform="matrix(0.9922 -0.1247 0.1247 0.9922 29.8263 92.4709)" class="st2" width="58.1" height="107.8"/>
	
		<rect id="XMLID_3452_" x="792.2" y="-253.4" transform="matrix(0.9922 -0.1247 0.1247 0.9922 31.2145 99.7885)" class="st2" width="41.5" height="107.8"/>
	
		<rect id="XMLID_3451_" x="843.2" y="-259.2" transform="matrix(0.9922 -0.1247 0.1247 0.9922 32.2844 105.4279)" class="st2" width="30.7" height="107.8"/>
	
		<rect id="XMLID_3450_" x="1964.3" y="337.3" transform="matrix(-0.9922 0.1247 -0.1247 -0.9922 4081.228 450.6915)" class="st2" width="124.4" height="31.6"/>
	
		<rect id="XMLID_3449_" x="1831.1" y="354" transform="matrix(-0.9922 0.1247 -0.1247 -0.9922 3817.9919 500.6299)" class="st2" width="124.4" height="31.6"/>
	
		<rect id="XMLID_3447_" x="1706.2" y="370.2" transform="matrix(-0.9922 0.1247 -0.1247 -0.9922 3562.8833 549.0264)" class="st2" width="116.1" height="31.6"/>
	
		<rect id="XMLID_3446_" x="1589.5" y="385.4" transform="matrix(-0.9922 0.1247 -0.1247 -0.9922 3324.0295 594.3392)" class="st2" width="107.8" height="31.6"/>
	
		<rect id="XMLID_3445_" x="1481" y="399.5" transform="matrix(-0.9922 0.1247 -0.1247 -0.9922 3101.4309 636.5683)" class="st2" width="99.5" height="31.6"/>
	
		<rect id="XMLID_3444_" x="1380.8" y="412.7" transform="matrix(-0.9922 0.1247 -0.1247 -0.9922 2895.0872 675.7136)" class="st2" width="91.2" height="31.6"/>
	
		<rect id="XMLID_3443_" x="1288.8" y="424.7" transform="matrix(-0.9922 0.1247 -0.1247 -0.9922 2704.9983 711.7753)" class="st2" width="82.9" height="31.6"/>
	
		<rect id="XMLID_3442_" x="1205" y="435.8" transform="matrix(-0.9922 0.1247 -0.1247 -0.9922 2531.1646 744.7532)" class="st2" width="74.7" height="31.6"/>
	
		<rect id="XMLID_3441_" x="1129.4" y="445.8" transform="matrix(-0.9922 0.1247 -0.1247 -0.9922 2373.5857 774.6474)" class="st2" width="66.4" height="31.6"/>
	
		<rect id="XMLID_3440_" x="1970" y="379.5" transform="matrix(-0.9922 0.1247 -0.1247 -0.9922 4098.3228 540.8029)" class="st2" width="124.4" height="38.2"/>
	
		<rect id="XMLID_3439_" x="1836.9" y="396.3" transform="matrix(-0.9922 0.1247 -0.1247 -0.9922 3835.0869 590.7413)" class="st2" width="124.4" height="38.2"/>
	
		<rect id="XMLID_3438_" x="1711.9" y="412.5" transform="matrix(-0.9922 0.1247 -0.1247 -0.9922 3579.9783 639.1378)" class="st2" width="116.1" height="38.2"/>
	
		<rect id="XMLID_3437_" x="1595.2" y="427.7" transform="matrix(-0.9922 0.1247 -0.1247 -0.9922 3341.1245 684.4506)" class="st2" width="107.8" height="38.2"/>
	
		<rect id="XMLID_3436_" x="1486.8" y="441.8" transform="matrix(-0.9922 0.1247 -0.1247 -0.9922 3118.5259 726.6797)" class="st2" width="99.5" height="38.2"/>
	
		<rect id="XMLID_3435_" x="1386.5" y="454.9" transform="matrix(-0.9922 0.1247 -0.1247 -0.9922 2912.1821 765.8251)" class="st2" width="91.2" height="38.2"/>
	
		<rect id="XMLID_3434_" x="1294.5" y="467" transform="matrix(-0.9922 0.1247 -0.1247 -0.9922 2722.0933 801.8867)" class="st2" width="82.9" height="38.2"/>
	
		<rect id="XMLID_3433_" x="1210.7" y="478.1" transform="matrix(-0.9922 0.1247 -0.1247 -0.9922 2548.2595 834.8646)" class="st2" width="74.7" height="38.2"/>
	
		<rect id="XMLID_3432_" x="1135.1" y="488.1" transform="matrix(-0.9922 0.1247 -0.1247 -0.9922 2390.6807 864.7588)" class="st2" width="66.4" height="38.2"/>
	
		<rect id="XMLID_3431_" x="1976.5" y="428.4" transform="matrix(-0.9922 0.1247 -0.1247 -0.9922 4117.5767 642.2928)" class="st2" width="124.4" height="43.2"/>
	
		<rect id="XMLID_3430_" x="1843.3" y="445.1" transform="matrix(-0.9922 0.1247 -0.1247 -0.9922 3854.3403 692.2311)" class="st2" width="124.4" height="43.2"/>
	
		<rect id="XMLID_3429_" x="1718.4" y="461.3" transform="matrix(-0.9922 0.1247 -0.1247 -0.9922 3599.2319 740.6277)" class="st2" width="116.1" height="43.2"/>
	
		<rect id="XMLID_3428_" x="1601.7" y="476.5" transform="matrix(-0.9922 0.1247 -0.1247 -0.9922 3360.3782 785.9405)" class="st2" width="107.8" height="43.2"/>
	
		<rect id="XMLID_3427_" x="1493.2" y="490.7" transform="matrix(-0.9922 0.1247 -0.1247 -0.9922 3137.7795 828.1696)" class="st2" width="99.5" height="43.2"/>
	
		<rect id="XMLID_3426_" x="1393" y="503.8" transform="matrix(-0.9922 0.1247 -0.1247 -0.9922 2931.4358 867.3149)" class="st2" width="91.2" height="43.2"/>
	
		<rect id="XMLID_3425_" x="1300.9" y="515.9" transform="matrix(-0.9922 0.1247 -0.1247 -0.9922 2741.3469 903.3765)" class="st2" width="82.9" height="43.2"/>
	
		<rect id="XMLID_3424_" x="1217.1" y="526.9" transform="matrix(-0.9922 0.1247 -0.1247 -0.9922 2567.5132 936.3545)" class="st2" width="74.7" height="43.2"/>
	
		<rect id="XMLID_3423_" x="1141.6" y="536.9" transform="matrix(-0.9922 0.1247 -0.1247 -0.9922 2409.9343 966.2487)" class="st2" width="66.4" height="43.2"/>
	
		<rect id="XMLID_3422_" x="1983.6" y="482.2" transform="matrix(-0.9922 0.1247 -0.1247 -0.9922 4138.6802 753.5356)" class="st2" width="124.4" height="48.1"/>
	
		<rect id="XMLID_3421_" x="1850.4" y="498.9" transform="matrix(-0.9922 0.1247 -0.1247 -0.9922 3875.4443 803.474)" class="st2" width="124.4" height="48.1"/>
	
		<rect id="XMLID_3420_" x="1725.5" y="515.1" transform="matrix(-0.9922 0.1247 -0.1247 -0.9922 3620.3357 851.8705)" class="st2" width="116.1" height="48.1"/>
	
		<rect id="XMLID_3419_" x="1608.8" y="530.3" transform="matrix(-0.9922 0.1247 -0.1247 -0.9922 3381.4819 897.1833)" class="st2" width="107.8" height="48.1"/>
	
		<rect id="XMLID_3418_" x="1500.3" y="544.5" transform="matrix(-0.9922 0.1247 -0.1247 -0.9922 3158.8833 939.4124)" class="st2" width="99.5" height="48.1"/>
	
		<rect id="XMLID_3417_" x="1400" y="557.6" transform="matrix(-0.9922 0.1247 -0.1247 -0.9922 2952.5396 978.5577)" class="st2" width="91.2" height="48.1"/>
	
		<rect id="XMLID_3416_" x="1308" y="569.7" transform="matrix(-0.9922 0.1247 -0.1247 -0.9922 2762.4507 1014.6194)" class="st2" width="82.9" height="48.1"/>
	
		<rect id="XMLID_3415_" x="1224.2" y="580.7" transform="matrix(-0.9922 0.1247 -0.1247 -0.9922 2588.6169 1047.5973)" class="st2" width="74.7" height="48.1"/>
	
		<rect id="XMLID_3414_" x="1148.6" y="590.7" transform="matrix(-0.9922 0.1247 -0.1247 -0.9922 2431.0381 1077.4915)" class="st2" width="66.4" height="48.1"/>
	
		<rect id="XMLID_3413_" x="1991.7" y="540.9" transform="matrix(-0.9922 0.1247 -0.1247 -0.9922 4162.8677 881.0334)" class="st2" width="124.4" height="59.7"/>
	
		<rect id="XMLID_3412_" x="1858.5" y="557.6" transform="matrix(-0.9922 0.1247 -0.1247 -0.9922 3899.6318 930.9718)" class="st2" width="124.4" height="59.7"/>
	
		<rect id="XMLID_3411_" x="1733.6" y="573.8" transform="matrix(-0.9922 0.1247 -0.1247 -0.9922 3644.5232 979.3683)" class="st2" width="116.1" height="59.7"/>
	
		<rect id="XMLID_3410_" x="1616.9" y="589" transform="matrix(-0.9922 0.1247 -0.1247 -0.9922 3405.6694 1024.6812)" class="st2" width="107.8" height="59.7"/>
	
		<rect id="XMLID_3409_" x="1508.4" y="603.2" transform="matrix(-0.9922 0.1247 -0.1247 -0.9922 3183.0708 1066.9102)" class="st2" width="99.5" height="59.7"/>
	
		<rect id="XMLID_3408_" x="1408.1" y="616.3" transform="matrix(-0.9922 0.1247 -0.1247 -0.9922 2976.7271 1106.0555)" class="st2" width="91.2" height="59.7"/>
	
		<rect id="XMLID_3407_" x="1316.1" y="628.4" transform="matrix(-0.9922 0.1247 -0.1247 -0.9922 2786.6382 1142.1172)" class="st2" width="82.9" height="59.7"/>
	
		<rect id="XMLID_3406_" x="1232.3" y="639.4" transform="matrix(-0.9922 0.1247 -0.1247 -0.9922 2612.8044 1175.0951)" class="st2" width="74.7" height="59.7"/>
	
		<rect id="XMLID_3405_" x="1156.7" y="649.4" transform="matrix(-0.9922 0.1247 -0.1247 -0.9922 2455.2256 1204.9893)" class="st2" width="66.4" height="59.7"/>
	
		<rect id="XMLID_3404_" x="2000.9" y="611.1" transform="matrix(-0.9922 0.1247 -0.1247 -0.9922 4190.2935 1025.5989)" class="st2" width="124.4" height="65.5"/>
	
		<rect id="XMLID_3403_" x="1867.7" y="627.9" transform="matrix(-0.9922 0.1247 -0.1247 -0.9922 3927.0571 1075.5374)" class="st2" width="124.4" height="65.5"/>
	
		<rect id="XMLID_3402_" x="1742.8" y="644.1" transform="matrix(-0.9922 0.1247 -0.1247 -0.9922 3671.9485 1123.9338)" class="st2" width="116.1" height="65.5"/>
	
		<rect id="XMLID_3401_" x="1626.1" y="659.3" transform="matrix(-0.9922 0.1247 -0.1247 -0.9922 3433.095 1169.2466)" class="st2" width="107.8" height="65.5"/>
	
		<rect id="XMLID_3400_" x="1517.6" y="673.4" transform="matrix(-0.9922 0.1247 -0.1247 -0.9922 3210.4963 1211.4757)" class="st2" width="99.5" height="65.5"/>
	
		<rect id="XMLID_3399_" x="1417.3" y="686.5" transform="matrix(-0.9922 0.1247 -0.1247 -0.9922 3004.1526 1250.6211)" class="st2" width="91.2" height="65.5"/>
	
		<rect id="XMLID_3398_" x="1325.3" y="698.6" transform="matrix(-0.9922 0.1247 -0.1247 -0.9922 2814.0637 1286.6827)" class="st2" width="82.9" height="65.5"/>
	
		<rect id="XMLID_3397_" x="1241.5" y="709.7" transform="matrix(-0.9922 0.1247 -0.1247 -0.9922 2640.23 1319.6606)" class="st2" width="74.7" height="65.5"/>
	
		<rect id="XMLID_3396_" x="1165.9" y="719.7" transform="matrix(-0.9922 0.1247 -0.1247 -0.9922 2482.6511 1349.5548)" class="st2" width="66.4" height="65.5"/>
	
		<rect id="XMLID_3395_" x="2010.6" y="685.9" transform="matrix(-0.9922 0.1247 -0.1247 -0.9922 4219.2412 1178.1882)" class="st2" width="124.4" height="70.5"/>
	
		<rect id="XMLID_3394_" x="1877.4" y="702.6" transform="matrix(-0.9922 0.1247 -0.1247 -0.9922 3956.0049 1228.1267)" class="st2" width="124.4" height="70.5"/>
	
		<rect id="XMLID_3393_" x="1752.5" y="718.8" transform="matrix(-0.9922 0.1247 -0.1247 -0.9922 3700.8962 1276.5232)" class="st2" width="116.1" height="70.5"/>
	
		<rect id="XMLID_3392_" x="1635.8" y="734" transform="matrix(-0.9922 0.1247 -0.1247 -0.9922 3462.0425 1321.8359)" class="st2" width="107.8" height="70.5"/>
	
		<rect id="XMLID_3391_" x="1527.3" y="748.1" transform="matrix(-0.9922 0.1247 -0.1247 -0.9922 3239.4438 1364.0651)" class="st2" width="99.5" height="70.5"/>
	
		<rect id="XMLID_3390_" x="1427" y="761.2" transform="matrix(-0.9922 0.1247 -0.1247 -0.9922 3033.1001 1403.2104)" class="st2" width="91.2" height="70.5"/>
	
		<rect id="XMLID_3389_" x="1335" y="773.3" transform="matrix(-0.9922 0.1247 -0.1247 -0.9922 2843.0112 1439.2721)" class="st2" width="82.9" height="70.5"/>
	
		<rect id="XMLID_3388_" x="1251.2" y="784.4" transform="matrix(-0.9922 0.1247 -0.1247 -0.9922 2669.1775 1472.25)" class="st2" width="74.7" height="70.5"/>
	
		<rect id="XMLID_3387_" x="1175.6" y="794.4" transform="matrix(-0.9922 0.1247 -0.1247 -0.9922 2511.5986 1502.1442)" class="st2" width="66.4" height="70.5"/>
	
		<rect id="XMLID_3386_" x="2021" y="766.8" transform="matrix(-0.9922 0.1247 -0.1247 -0.9922 4250.3667 1342.2598)" class="st2" width="124.4" height="74.7"/>
	
		<rect id="XMLID_3385_" x="1887.8" y="783.5" transform="matrix(-0.9922 0.1247 -0.1247 -0.9922 3987.1309 1392.1981)" class="st2" width="124.4" height="74.7"/>
	
		<rect id="XMLID_3384_" x="1762.9" y="799.7" transform="matrix(-0.9922 0.1247 -0.1247 -0.9922 3732.0222 1440.5946)" class="st2" width="116.1" height="74.7"/>
	
		<rect id="XMLID_3383_" x="1646.2" y="814.9" transform="matrix(-0.9922 0.1247 -0.1247 -0.9922 3493.1685 1485.9075)" class="st2" width="107.8" height="74.7"/>
	
		<rect id="XMLID_3382_" x="1537.7" y="829.1" transform="matrix(-0.9922 0.1247 -0.1247 -0.9922 3270.5698 1528.1365)" class="st2" width="99.5" height="74.7"/>
	
		<rect id="XMLID_3381_" x="1437.5" y="842.2" transform="matrix(-0.9922 0.1247 -0.1247 -0.9922 3064.2261 1567.2819)" class="st2" width="91.2" height="74.7"/>
	
		<rect id="XMLID_3380_" x="1345.4" y="854.3" transform="matrix(-0.9922 0.1247 -0.1247 -0.9922 2874.1372 1603.3435)" class="st2" width="82.9" height="74.7"/>
	
		<rect id="XMLID_3379_" x="1261.6" y="865.3" transform="matrix(-0.9922 0.1247 -0.1247 -0.9922 2700.3035 1636.3214)" class="st2" width="74.7" height="74.7"/>
	
		<rect id="XMLID_3378_" x="1186" y="875.3" transform="matrix(-0.9922 0.1247 -0.1247 -0.9922 2542.7246 1666.2156)" class="st2" width="66.4" height="74.7"/>
	
		<rect id="XMLID_3377_" x="2032.7" y="851.8" transform="matrix(-0.9922 0.1247 -0.1247 -0.9922 4285.3477 1526.6499)" class="st2" width="124.4" height="91.2"/>
	
		<rect id="XMLID_3376_" x="1899.5" y="868.5" transform="matrix(-0.9922 0.1247 -0.1247 -0.9922 4022.1113 1576.5883)" class="st2" width="124.4" height="91.2"/>
	
		<rect id="XMLID_3375_" x="1774.6" y="884.7" transform="matrix(-0.9922 0.1247 -0.1247 -0.9922 3767.0027 1624.9847)" class="st2" width="116.1" height="91.2"/>
	
		<rect id="XMLID_3374_" x="1657.9" y="899.9" transform="matrix(-0.9922 0.1247 -0.1247 -0.9922 3528.1489 1670.2976)" class="st2" width="107.8" height="91.2"/>
	
		<rect id="XMLID_3373_" x="1549.4" y="914.1" transform="matrix(-0.9922 0.1247 -0.1247 -0.9922 3305.5503 1712.5266)" class="st2" width="99.5" height="91.2"/>
	
		<rect id="XMLID_3372_" x="1449.2" y="927.2" transform="matrix(-0.9922 0.1247 -0.1247 -0.9922 3099.2065 1751.672)" class="st2" width="91.2" height="91.2"/>
	
		<rect id="XMLID_3371_" x="1357.2" y="939.3" transform="matrix(-0.9922 0.1247 -0.1247 -0.9922 2909.1179 1787.7336)" class="st2" width="82.9" height="91.2"/>
	
		<rect id="XMLID_3370_" x="1273.4" y="950.3" transform="matrix(-0.9922 0.1247 -0.1247 -0.9922 2735.2839 1820.7115)" class="st2" width="74.7" height="91.2"/>
	
		<rect id="XMLID_3369_" x="1197.8" y="960.3" transform="matrix(-0.9922 0.1247 -0.1247 -0.9922 2577.7051 1850.6057)" class="st2" width="66.4" height="91.2"/>
	
		<rect id="XMLID_3368_" x="2046.5" y="953.2" transform="matrix(-0.9922 0.1247 -0.1247 -0.9922 4326.4956 1743.5499)" class="st2" width="124.4" height="107.8"/>
	
		<rect id="XMLID_3367_" x="1913.3" y="970" transform="matrix(-0.9922 0.1247 -0.1247 -0.9922 4063.2593 1793.4883)" class="st2" width="124.4" height="107.8"/>
	
		<rect id="XMLID_3366_" x="1788.4" y="986.2" transform="matrix(-0.9922 0.1247 -0.1247 -0.9922 3808.1506 1841.8849)" class="st2" width="116.1" height="107.8"/>
	
		<rect id="XMLID_3365_" x="1671.7" y="1001.4" transform="matrix(-0.9922 0.1247 -0.1247 -0.9922 3569.2971 1887.1976)" class="st2" width="107.8" height="107.8"/>
	
		<rect id="XMLID_3364_" x="1563.2" y="1015.5" transform="matrix(-0.9922 0.1247 -0.1247 -0.9922 3346.6982 1929.4268)" class="st2" width="99.5" height="107.8"/>
	
		<rect id="XMLID_3363_" x="1463" y="1028.6" transform="matrix(-0.9922 0.1247 -0.1247 -0.9922 3140.3545 1968.572)" class="st2" width="91.2" height="107.8"/>
	
		<rect id="XMLID_3362_" x="1370.9" y="1040.7" transform="matrix(-0.9922 0.1247 -0.1247 -0.9922 2950.2659 2004.6337)" class="st2" width="82.9" height="107.8"/>
	
		<rect id="XMLID_3361_" x="1287.1" y="1051.8" transform="matrix(-0.9922 0.1247 -0.1247 -0.9922 2776.4319 2037.6116)" class="st2" width="74.7" height="107.8"/>
	
		<rect id="XMLID_3360_" x="1211.6" y="1061.8" transform="matrix(-0.9922 0.1247 -0.1247 -0.9922 2618.853 2067.5059)" class="st2" width="66.4" height="107.8"/>
	
		<rect id="XMLID_3359_" x="1061.8" y="454.8" transform="matrix(-0.9922 0.1247 -0.1247 -0.9922 2231.8901 801.5284)" class="st2" width="58.1" height="31.6"/>
	
		<rect id="XMLID_3358_" x="1011" y="462.3" transform="matrix(-0.9922 0.1247 -0.1247 -0.9922 2114.9487 823.7133)" class="st2" width="41.5" height="31.6"/>
	
		<rect id="XMLID_3357_" x="970.7" y="468" transform="matrix(-0.9922 0.1247 -0.1247 -0.9922 2024.8279 840.8101)" class="st2" width="30.7" height="31.6"/>
	
		<rect id="XMLID_3356_" x="1067.6" y="497.1" transform="matrix(-0.9922 0.1247 -0.1247 -0.9922 2248.9851 891.6398)" class="st2" width="58.1" height="38.2"/>
	
		<rect id="XMLID_3355_" x="1016.7" y="504.5" transform="matrix(-0.9922 0.1247 -0.1247 -0.9922 2132.0437 913.8246)" class="st2" width="41.5" height="38.2"/>
	
		<rect id="XMLID_3354_" x="976.5" y="510.3" transform="matrix(-0.9922 0.1247 -0.1247 -0.9922 2041.923 930.9214)" class="st2" width="30.7" height="38.2"/>
	
		<rect id="XMLID_3353_" x="1074" y="546" transform="matrix(-0.9922 0.1247 -0.1247 -0.9922 2268.2388 993.1296)" class="st2" width="58.1" height="43.2"/>
	
		<rect id="XMLID_3352_" x="1023.1" y="553.4" transform="matrix(-0.9922 0.1247 -0.1247 -0.9922 2151.2974 1015.3145)" class="st2" width="41.5" height="43.2"/>
	
		<rect id="XMLID_3351_" x="982.9" y="559.1" transform="matrix(-0.9922 0.1247 -0.1247 -0.9922 2061.1765 1032.4113)" class="st2" width="30.7" height="43.2"/>
	
		<rect id="XMLID_3350_" x="1081.1" y="599.8" transform="matrix(-0.9922 0.1247 -0.1247 -0.9922 2289.3425 1104.3724)" class="st2" width="58.1" height="48.1"/>
	
		<rect id="XMLID_3336_" x="1030.2" y="607.2" transform="matrix(-0.9922 0.1247 -0.1247 -0.9922 2172.4011 1126.5574)" class="st2" width="41.5" height="48.1"/>
	
		<rect id="XMLID_3335_" x="990" y="612.9" transform="matrix(-0.9922 0.1247 -0.1247 -0.9922 2082.2803 1143.6542)" class="st2" width="30.7" height="48.1"/>
	
		<rect id="XMLID_3334_" x="1089.2" y="658.5" transform="matrix(-0.9922 0.1247 -0.1247 -0.9922 2313.53 1231.8702)" class="st2" width="58.1" height="59.7"/>
	
		<rect id="XMLID_3333_" x="1038.3" y="665.9" transform="matrix(-0.9922 0.1247 -0.1247 -0.9922 2196.5886 1254.0552)" class="st2" width="41.5" height="59.7"/>
	
		<rect id="XMLID_3332_" x="998.1" y="671.6" transform="matrix(-0.9922 0.1247 -0.1247 -0.9922 2106.4678 1271.152)" class="st2" width="30.7" height="59.7"/>
	
		<rect id="XMLID_3331_" x="1098.4" y="728.7" transform="matrix(-0.9922 0.1247 -0.1247 -0.9922 2340.9556 1376.4358)" class="st2" width="58.1" height="65.5"/>
	
		<rect id="XMLID_3330_" x="1047.5" y="736.1" transform="matrix(-0.9922 0.1247 -0.1247 -0.9922 2224.0142 1398.6207)" class="st2" width="41.5" height="65.5"/>
	
		<rect id="XMLID_3329_" x="1007.3" y="741.9" transform="matrix(-0.9922 0.1247 -0.1247 -0.9922 2133.8933 1415.7174)" class="st2" width="30.7" height="65.5"/>
	
		<rect id="XMLID_3328_" x="1108.1" y="803.4" transform="matrix(-0.9922 0.1247 -0.1247 -0.9922 2369.9033 1529.0251)" class="st2" width="58.1" height="70.5"/>
	
		<rect id="XMLID_3327_" x="1057.2" y="810.8" transform="matrix(-0.9922 0.1247 -0.1247 -0.9922 2252.9617 1551.2101)" class="st2" width="41.5" height="70.5"/>
	
		<rect id="XMLID_3326_" x="1017" y="816.6" transform="matrix(-0.9922 0.1247 -0.1247 -0.9922 2162.8411 1568.3068)" class="st2" width="30.7" height="70.5"/>
	
		<rect id="XMLID_3325_" x="1118.5" y="884.3" transform="matrix(-0.9922 0.1247 -0.1247 -0.9922 2401.0291 1693.0966)" class="st2" width="58.1" height="74.7"/>
	
		<rect id="XMLID_3324_" x="1067.6" y="891.8" transform="matrix(-0.9922 0.1247 -0.1247 -0.9922 2284.0876 1715.2815)" class="st2" width="41.5" height="74.7"/>
	
		<rect id="XMLID_3323_" x="1027.4" y="897.5" transform="matrix(-0.9922 0.1247 -0.1247 -0.9922 2193.9668 1732.3783)" class="st2" width="30.7" height="74.7"/>
	
		<rect id="XMLID_3322_" x="1130.2" y="969.3" transform="matrix(-0.9922 0.1247 -0.1247 -0.9922 2436.0098 1877.4867)" class="st2" width="58.1" height="91.2"/>
	
		<rect id="XMLID_3321_" x="1079.3" y="976.8" transform="matrix(-0.9922 0.1247 -0.1247 -0.9922 2319.0681 1899.6716)" class="st2" width="41.5" height="91.2"/>
	
		<rect id="XMLID_3320_" x="1039.1" y="982.5" transform="matrix(-0.9922 0.1247 -0.1247 -0.9922 2228.9475 1916.7684)" class="st2" width="30.7" height="91.2"/>
	
		<rect id="XMLID_3319_" x="1144" y="1070.8" transform="matrix(-0.9922 0.1247 -0.1247 -0.9922 2477.1577 2094.3867)" class="st2" width="58.1" height="107.8"/>
	
		<rect id="XMLID_3318_" x="1093.1" y="1078.2" transform="matrix(-0.9922 0.1247 -0.1247 -0.9922 2360.2163 2116.5718)" class="st2" width="41.5" height="107.8"/>
	
		<rect id="XMLID_3317_" x="1052.9" y="1084" transform="matrix(-0.9922 0.1247 -0.1247 -0.9922 2270.0955 2133.6685)" class="st2" width="30.7" height="107.8"/>
	
		<rect id="XMLID_3316_" x="1959.3" y="297.3" transform="matrix(-0.9922 0.1247 -0.1247 -0.9922 4066.239 371.6811)" class="st2" width="124.4" height="31.6"/>
	
		<rect id="XMLID_3315_" x="1826.1" y="314" transform="matrix(-0.9922 0.1247 -0.1247 -0.9922 3803.0029 421.6195)" class="st2" width="124.4" height="31.6"/>
	
		<rect id="XMLID_3314_" x="1701.2" y="330.2" transform="matrix(-0.9922 0.1247 -0.1247 -0.9922 3547.8943 470.016)" class="st2" width="116.1" height="31.6"/>
	
		<rect id="XMLID_3313_" x="1584.5" y="345.4" transform="matrix(-0.9922 0.1247 -0.1247 -0.9922 3309.0405 515.3288)" class="st2" width="107.8" height="31.6"/>
	
		<rect id="XMLID_3312_" x="1476" y="359.6" transform="matrix(-0.9922 0.1247 -0.1247 -0.9922 3086.4419 557.5579)" class="st2" width="99.5" height="31.6"/>
	
		<rect id="XMLID_3236_" x="1375.8" y="372.7" transform="matrix(-0.9922 0.1247 -0.1247 -0.9922 2880.0981 596.7032)" class="st2" width="91.2" height="31.6"/>
	
		<rect id="XMLID_3235_" x="1283.7" y="384.8" transform="matrix(-0.9922 0.1247 -0.1247 -0.9922 2690.0093 632.7648)" class="st2" width="82.9" height="31.6"/>
	
		<rect id="XMLID_3234_" x="1199.9" y="395.8" transform="matrix(-0.9922 0.1247 -0.1247 -0.9922 2516.1755 665.7428)" class="st2" width="74.7" height="31.6"/>
	
		<rect id="XMLID_3233_" x="1124.4" y="405.8" transform="matrix(-0.9922 0.1247 -0.1247 -0.9922 2358.5967 695.637)" class="st2" width="66.4" height="31.6"/>
	
		<rect id="XMLID_3232_" x="1953.6" y="248.4" transform="matrix(-0.9922 0.1247 -0.1247 -0.9922 4049.144 281.5697)" class="st2" width="124.4" height="38.2"/>
	
		<rect id="XMLID_3231_" x="1820.4" y="265.1" transform="matrix(-0.9922 0.1247 -0.1247 -0.9922 3785.908 331.5081)" class="st2" width="124.4" height="38.2"/>
	
		<rect id="XMLID_3230_" x="1695.5" y="281.3" transform="matrix(-0.9922 0.1247 -0.1247 -0.9922 3530.7993 379.9046)" class="st2" width="116.1" height="38.2"/>
	
		<rect id="XMLID_3229_" x="1578.8" y="296.5" transform="matrix(-0.9922 0.1247 -0.1247 -0.9922 3291.9456 425.2174)" class="st2" width="107.8" height="38.2"/>
	
		<rect id="XMLID_3228_" x="1470.3" y="310.7" transform="matrix(-0.9922 0.1247 -0.1247 -0.9922 3069.3469 467.4465)" class="st2" width="99.5" height="38.2"/>
	
		<rect id="XMLID_3227_" x="1370" y="323.8" transform="matrix(-0.9922 0.1247 -0.1247 -0.9922 2863.0032 506.5918)" class="st2" width="91.2" height="38.2"/>
	
		<rect id="XMLID_3226_" x="1278" y="335.9" transform="matrix(-0.9922 0.1247 -0.1247 -0.9922 2672.9143 542.6534)" class="st2" width="82.9" height="38.2"/>
	
		<rect id="XMLID_3225_" x="1194.2" y="346.9" transform="matrix(-0.9922 0.1247 -0.1247 -0.9922 2499.0806 575.6314)" class="st2" width="74.7" height="38.2"/>
	
		<rect id="XMLID_3224_" x="1118.6" y="356.9" transform="matrix(-0.9922 0.1247 -0.1247 -0.9922 2341.5017 605.5256)" class="st2" width="66.4" height="38.2"/>
	
		<rect id="XMLID_3223_" x="1947.1" y="194.5" transform="matrix(-0.9922 0.1247 -0.1247 -0.9922 4029.8904 180.0798)" class="st2" width="124.4" height="43.2"/>
	
		<rect id="XMLID_3222_" x="1813.9" y="211.3" transform="matrix(-0.9922 0.1247 -0.1247 -0.9922 3766.6543 230.0182)" class="st2" width="124.4" height="43.2"/>
	
		<rect id="XMLID_3221_" x="1689" y="227.5" transform="matrix(-0.9922 0.1247 -0.1247 -0.9922 3511.5457 278.4147)" class="st2" width="116.1" height="43.2"/>
	
		<rect id="XMLID_3220_" x="1572.3" y="242.7" transform="matrix(-0.9922 0.1247 -0.1247 -0.9922 3272.6919 323.7275)" class="st2" width="107.8" height="43.2"/>
	
		<rect id="XMLID_3219_" x="1463.8" y="256.8" transform="matrix(-0.9922 0.1247 -0.1247 -0.9922 3050.0933 365.9566)" class="st2" width="99.5" height="43.2"/>
	
		<rect id="XMLID_3218_" x="1363.6" y="269.9" transform="matrix(-0.9922 0.1247 -0.1247 -0.9922 2843.7495 405.102)" class="st2" width="91.2" height="43.2"/>
	
		<rect id="XMLID_3217_" x="1271.6" y="282" transform="matrix(-0.9922 0.1247 -0.1247 -0.9922 2653.6606 441.1636)" class="st2" width="82.9" height="43.2"/>
	
		<rect id="XMLID_3216_" x="1187.8" y="293.1" transform="matrix(-0.9922 0.1247 -0.1247 -0.9922 2479.8269 474.1415)" class="st2" width="74.7" height="43.2"/>
	
		<rect id="XMLID_3215_" x="1112.2" y="303.1" transform="matrix(-0.9922 0.1247 -0.1247 -0.9922 2322.248 504.0357)" class="st2" width="66.4" height="43.2"/>
	
		<rect id="XMLID_3214_" x="1940" y="135.8" transform="matrix(-0.9922 0.1247 -0.1247 -0.9922 4008.7866 68.837)" class="st2" width="124.4" height="48.1"/>
	
		<rect id="XMLID_3213_" x="1806.9" y="152.5" transform="matrix(-0.9922 0.1247 -0.1247 -0.9922 3745.5505 118.7754)" class="st2" width="124.4" height="48.1"/>
	
		<rect id="XMLID_3212_" x="1681.9" y="168.7" transform="matrix(-0.9922 0.1247 -0.1247 -0.9922 3490.4419 167.1719)" class="st2" width="116.1" height="48.1"/>
	
		<rect id="XMLID_3211_" x="1565.2" y="183.9" transform="matrix(-0.9922 0.1247 -0.1247 -0.9922 3251.5881 212.4847)" class="st2" width="107.8" height="48.1"/>
	
		<rect id="XMLID_3210_" x="1456.8" y="198.1" transform="matrix(-0.9922 0.1247 -0.1247 -0.9922 3028.9895 254.7138)" class="st2" width="99.5" height="48.1"/>
	
		<rect id="XMLID_3209_" x="1356.5" y="211.2" transform="matrix(-0.9922 0.1247 -0.1247 -0.9922 2822.6458 293.8591)" class="st2" width="91.2" height="48.1"/>
	
		<rect id="XMLID_3208_" x="1264.5" y="223.3" transform="matrix(-0.9922 0.1247 -0.1247 -0.9922 2632.5569 329.9208)" class="st2" width="82.9" height="48.1"/>
	
		<rect id="XMLID_3207_" x="1180.7" y="234.3" transform="matrix(-0.9922 0.1247 -0.1247 -0.9922 2458.7231 362.8987)" class="st2" width="74.7" height="48.1"/>
	
		<rect id="XMLID_3206_" x="1105.1" y="244.3" transform="matrix(-0.9922 0.1247 -0.1247 -0.9922 2301.1443 392.7929)" class="st2" width="66.4" height="48.1"/>
	
		<rect id="XMLID_3205_" x="1931.9" y="65.5" transform="matrix(-0.9922 0.1247 -0.1247 -0.9922 3984.5991 -58.6608)" class="st2" width="124.4" height="59.7"/>
	
		<rect id="XMLID_3204_" x="1798.8" y="82.2" transform="matrix(-0.9922 0.1247 -0.1247 -0.9922 3721.3628 -8.7224)" class="st2" width="124.4" height="59.7"/>
	
		<rect id="XMLID_3203_" x="1673.8" y="98.4" transform="matrix(-0.9922 0.1247 -0.1247 -0.9922 3466.2544 39.6741)" class="st2" width="116.1" height="59.7"/>
	
		<rect id="XMLID_3202_" x="1557.1" y="113.6" transform="matrix(-0.9922 0.1247 -0.1247 -0.9922 3227.4006 84.9869)" class="st2" width="107.8" height="59.7"/>
	
		<rect id="XMLID_3201_" x="1448.7" y="127.8" transform="matrix(-0.9922 0.1247 -0.1247 -0.9922 3004.802 127.216)" class="st2" width="99.5" height="59.7"/>
	
		<rect id="XMLID_3200_" x="1348.4" y="140.9" transform="matrix(-0.9922 0.1247 -0.1247 -0.9922 2798.4583 166.3613)" class="st2" width="91.2" height="59.7"/>
	
		<rect id="XMLID_3199_" x="1256.4" y="153" transform="matrix(-0.9922 0.1247 -0.1247 -0.9922 2608.3694 202.423)" class="st2" width="82.9" height="59.7"/>
	
		<rect id="XMLID_3198_" x="1172.6" y="164" transform="matrix(-0.9922 0.1247 -0.1247 -0.9922 2434.5356 235.4009)" class="st2" width="74.7" height="59.7"/>
	
		<rect id="XMLID_3197_" x="1097" y="174" transform="matrix(-0.9922 0.1247 -0.1247 -0.9922 2276.9568 265.2951)" class="st2" width="66.4" height="59.7"/>
	
		<rect id="XMLID_3196_" x="1922.8" y="-10.6" transform="matrix(-0.9922 0.1247 -0.1247 -0.9922 3957.1736 -203.2263)" class="st2" width="124.4" height="65.5"/>
	
		<rect id="XMLID_3195_" x="1789.6" y="6.2" transform="matrix(-0.9922 0.1247 -0.1247 -0.9922 3693.9375 -153.2879)" class="st2" width="124.4" height="65.5"/>
	
		<rect id="XMLID_3194_" x="1664.6" y="22.4" transform="matrix(-0.9922 0.1247 -0.1247 -0.9922 3438.8289 -104.8914)" class="st2" width="116.1" height="65.5"/>
	
		<rect id="XMLID_3193_" x="1547.9" y="37.6" transform="matrix(-0.9922 0.1247 -0.1247 -0.9922 3199.9751 -59.5786)" class="st2" width="107.8" height="65.5"/>
	
		<rect id="XMLID_3192_" x="1439.5" y="51.7" transform="matrix(-0.9922 0.1247 -0.1247 -0.9922 2977.3765 -17.3495)" class="st2" width="99.5" height="65.5"/>
	
		<rect id="XMLID_3191_" x="1339.2" y="64.8" transform="matrix(-0.9922 0.1247 -0.1247 -0.9922 2771.0327 21.7958)" class="st2" width="91.2" height="65.5"/>
	
		<rect id="XMLID_3190_" x="1247.2" y="76.9" transform="matrix(-0.9922 0.1247 -0.1247 -0.9922 2580.9438 57.8575)" class="st2" width="82.9" height="65.5"/>
	
		<rect id="XMLID_3189_" x="1163.4" y="88" transform="matrix(-0.9922 0.1247 -0.1247 -0.9922 2407.1101 90.8354)" class="st2" width="74.7" height="65.5"/>
	
		<rect id="XMLID_3188_" x="1087.8" y="98" transform="matrix(-0.9922 0.1247 -0.1247 -0.9922 2249.5312 120.7296)" class="st2" width="66.4" height="65.5"/>
	
		<rect id="XMLID_3187_" x="1913.1" y="-90.3" transform="matrix(-0.9922 0.1247 -0.1247 -0.9922 3928.2258 -355.8156)" class="st2" width="124.4" height="70.5"/>
	
		<rect id="XMLID_3186_" x="1779.9" y="-73.5" transform="matrix(-0.9922 0.1247 -0.1247 -0.9922 3664.9897 -305.8773)" class="st2" width="124.4" height="70.5"/>
	
		<rect id="XMLID_3185_" x="1654.9" y="-57.3" transform="matrix(-0.9922 0.1247 -0.1247 -0.9922 3409.8811 -257.4808)" class="st2" width="116.1" height="70.5"/>
	
		<rect id="XMLID_3184_" x="1538.2" y="-42.1" transform="matrix(-0.9922 0.1247 -0.1247 -0.9922 3171.0276 -212.168)" class="st2" width="107.8" height="70.5"/>
	
		<rect id="XMLID_3183_" x="1429.8" y="-28" transform="matrix(-0.9922 0.1247 -0.1247 -0.9922 2948.429 -169.9389)" class="st2" width="99.5" height="70.5"/>
	
		<rect id="XMLID_3182_" x="1329.5" y="-14.9" transform="matrix(-0.9922 0.1247 -0.1247 -0.9922 2742.0852 -130.7935)" class="st2" width="91.2" height="70.5"/>
	
		<rect id="XMLID_3181_" x="1237.5" y="-2.8" transform="matrix(-0.9922 0.1247 -0.1247 -0.9922 2551.9963 -94.7319)" class="st2" width="82.9" height="70.5"/>
	
		<rect id="XMLID_3180_" x="1153.7" y="8.3" transform="matrix(-0.9922 0.1247 -0.1247 -0.9922 2378.1624 -61.754)" class="st2" width="74.7" height="70.5"/>
	
		<rect id="XMLID_3179_" x="1078.1" y="18.3" transform="matrix(-0.9922 0.1247 -0.1247 -0.9922 2220.5835 -31.8598)" class="st2" width="66.4" height="70.5"/>
	
		<rect id="XMLID_3178_" x="1902.6" y="-175.3" transform="matrix(-0.9922 0.1247 -0.1247 -0.9922 3897.1001 -519.8871)" class="st2" width="124.4" height="74.7"/>
	
		<rect id="XMLID_3177_" x="1769.4" y="-158.6" transform="matrix(-0.9922 0.1247 -0.1247 -0.9922 3633.864 -469.9487)" class="st2" width="124.4" height="74.7"/>
	
		<rect id="XMLID_3176_" x="1644.5" y="-142.4" transform="matrix(-0.9922 0.1247 -0.1247 -0.9922 3378.7554 -421.5522)" class="st2" width="116.1" height="74.7"/>
	
		<rect id="XMLID_3175_" x="1527.8" y="-127.2" transform="matrix(-0.9922 0.1247 -0.1247 -0.9922 3139.9016 -376.2394)" class="st2" width="107.8" height="74.7"/>
	
		<rect id="XMLID_3174_" x="1419.3" y="-113.1" transform="matrix(-0.9922 0.1247 -0.1247 -0.9922 2917.303 -334.0103)" class="st2" width="99.5" height="74.7"/>
	
		<rect id="XMLID_3173_" x="1319.1" y="-99.9" transform="matrix(-0.9922 0.1247 -0.1247 -0.9922 2710.9592 -294.865)" class="st2" width="91.2" height="74.7"/>
	
		<rect id="XMLID_3172_" x="1227.1" y="-87.9" transform="matrix(-0.9922 0.1247 -0.1247 -0.9922 2520.8704 -258.8033)" class="st2" width="82.9" height="74.7"/>
	
		<rect id="XMLID_3171_" x="1143.3" y="-76.8" transform="matrix(-0.9922 0.1247 -0.1247 -0.9922 2347.0366 -225.8254)" class="st2" width="74.7" height="74.7"/>
	
		<rect id="XMLID_3170_" x="1067.7" y="-66.8" transform="matrix(-0.9922 0.1247 -0.1247 -0.9922 2189.4578 -195.9312)" class="st2" width="66.4" height="74.7"/>
	
		<rect id="XMLID_3169_" x="1890.9" y="-276.9" transform="matrix(-0.9922 0.1247 -0.1247 -0.9922 3862.1194 -704.2773)" class="st2" width="124.4" height="91.2"/>
	
		<rect id="XMLID_3168_" x="1757.7" y="-260.2" transform="matrix(-0.9922 0.1247 -0.1247 -0.9922 3598.8833 -654.3389)" class="st2" width="124.4" height="91.2"/>
	
		<rect id="XMLID_3167_" x="1632.8" y="-244" transform="matrix(-0.9922 0.1247 -0.1247 -0.9922 3343.7747 -605.9424)" class="st2" width="116.1" height="91.2"/>
	
		<rect id="XMLID_3166_" x="1516.1" y="-228.8" transform="matrix(-0.9922 0.1247 -0.1247 -0.9922 3104.9211 -560.6296)" class="st2" width="107.8" height="91.2"/>
	
		<rect id="XMLID_3165_" x="1407.6" y="-214.6" transform="matrix(-0.9922 0.1247 -0.1247 -0.9922 2882.3223 -518.4005)" class="st2" width="99.5" height="91.2"/>
	
		<rect id="XMLID_3164_" x="1307.4" y="-201.5" transform="matrix(-0.9922 0.1247 -0.1247 -0.9922 2675.9785 -479.2551)" class="st2" width="91.2" height="91.2"/>
	
		<rect id="XMLID_3163_" x="1215.3" y="-189.4" transform="matrix(-0.9922 0.1247 -0.1247 -0.9922 2485.8899 -443.1935)" class="st2" width="82.9" height="91.2"/>
	
		<rect id="XMLID_3162_" x="1131.5" y="-178.4" transform="matrix(-0.9922 0.1247 -0.1247 -0.9922 2312.0559 -410.2156)" class="st2" width="74.7" height="91.2"/>
	
		<rect id="XMLID_3161_" x="1056" y="-168.4" transform="matrix(-0.9922 0.1247 -0.1247 -0.9922 2154.4771 -380.3214)" class="st2" width="66.4" height="91.2"/>
	
		<rect id="XMLID_3160_" x="1877.1" y="-394.9" transform="matrix(-0.9922 0.1247 -0.1247 -0.9922 3820.9714 -921.1773)" class="st2" width="124.4" height="107.8"/>
	
		<rect id="XMLID_3159_" x="1743.9" y="-378.2" transform="matrix(-0.9922 0.1247 -0.1247 -0.9922 3557.7354 -871.239)" class="st2" width="124.4" height="107.8"/>
	
		<rect id="XMLID_3158_" x="1619" y="-362" transform="matrix(-0.9922 0.1247 -0.1247 -0.9922 3302.6267 -822.8424)" class="st2" width="116.1" height="107.8"/>
	
		<rect id="XMLID_3157_" x="1502.3" y="-346.8" transform="matrix(-0.9922 0.1247 -0.1247 -0.9922 3063.7732 -777.5296)" class="st2" width="107.8" height="107.8"/>
	
		<rect id="XMLID_3156_" x="1393.8" y="-332.7" transform="matrix(-0.9922 0.1247 -0.1247 -0.9922 2841.1743 -735.3005)" class="st2" width="99.5" height="107.8"/>
	
		<rect id="XMLID_3155_" x="1293.6" y="-319.5" transform="matrix(-0.9922 0.1247 -0.1247 -0.9922 2634.8306 -696.1552)" class="st2" width="91.2" height="107.8"/>
	
		<rect id="XMLID_3154_" x="1201.6" y="-307.5" transform="matrix(-0.9922 0.1247 -0.1247 -0.9922 2444.7419 -660.0936)" class="st2" width="82.9" height="107.8"/>
	
		<rect id="XMLID_3153_" x="1117.7" y="-296.4" transform="matrix(-0.9922 0.1247 -0.1247 -0.9922 2270.908 -627.1157)" class="st2" width="74.7" height="107.8"/>
	
		<rect id="XMLID_3152_" x="1042.2" y="-286.4" transform="matrix(-0.9922 0.1247 -0.1247 -0.9922 2113.3291 -597.2214)" class="st2" width="66.4" height="107.8"/>
	
		<rect id="XMLID_3151_" x="1056.8" y="414.8" transform="matrix(-0.9922 0.1247 -0.1247 -0.9922 2216.9011 722.5179)" class="st2" width="58.1" height="31.6"/>
	
		<rect id="XMLID_3150_" x="1005.9" y="422.3" transform="matrix(-0.9922 0.1247 -0.1247 -0.9922 2099.9597 744.7028)" class="st2" width="41.5" height="31.6"/>
	
		<rect id="XMLID_3149_" x="965.7" y="428" transform="matrix(-0.9922 0.1247 -0.1247 -0.9922 2009.8389 761.7996)" class="st2" width="30.7" height="31.6"/>
	
		<rect id="XMLID_3148_" x="1051.1" y="365.9" transform="matrix(-0.9922 0.1247 -0.1247 -0.9922 2199.8062 632.4066)" class="st2" width="58.1" height="38.2"/>
	
		<rect id="XMLID_3147_" x="1000.2" y="373.4" transform="matrix(-0.9922 0.1247 -0.1247 -0.9922 2082.8647 654.5914)" class="st2" width="41.5" height="38.2"/>
	
		<rect id="XMLID_3146_" x="960" y="379.1" transform="matrix(-0.9922 0.1247 -0.1247 -0.9922 1992.7439 671.6882)" class="st2" width="30.7" height="38.2"/>
	
		<rect id="XMLID_3145_" x="1044.6" y="312.1" transform="matrix(-0.9922 0.1247 -0.1247 -0.9922 2180.5527 530.9167)" class="st2" width="58.1" height="43.2"/>
	
		<rect id="XMLID_3144_" x="993.8" y="319.5" transform="matrix(-0.9922 0.1247 -0.1247 -0.9922 2063.6111 553.1016)" class="st2" width="41.5" height="43.2"/>
	
		<rect id="XMLID_3143_" x="953.5" y="325.3" transform="matrix(-0.9922 0.1247 -0.1247 -0.9922 1973.4904 570.1984)" class="st2" width="30.7" height="43.2"/>
	
		<rect id="XMLID_3142_" x="1037.6" y="253.3" transform="matrix(-0.9922 0.1247 -0.1247 -0.9922 2159.4487 419.6739)" class="st2" width="58.1" height="48.1"/>
	
		<rect id="XMLID_3141_" x="986.7" y="260.8" transform="matrix(-0.9922 0.1247 -0.1247 -0.9922 2042.5073 441.8588)" class="st2" width="41.5" height="48.1"/>
	
		<rect id="XMLID_3140_" x="946.5" y="266.5" transform="matrix(-0.9922 0.1247 -0.1247 -0.9922 1952.3865 458.9555)" class="st2" width="30.7" height="48.1"/>
	
		<rect id="XMLID_3139_" x="1029.5" y="183" transform="matrix(-0.9922 0.1247 -0.1247 -0.9922 2135.2612 292.1761)" class="st2" width="58.1" height="59.7"/>
	
		<rect id="XMLID_3138_" x="978.6" y="190.5" transform="matrix(-0.9922 0.1247 -0.1247 -0.9922 2018.3198 314.361)" class="st2" width="41.5" height="59.7"/>
	
		<rect id="XMLID_3137_" x="938.4" y="196.2" transform="matrix(-0.9922 0.1247 -0.1247 -0.9922 1928.199 331.4577)" class="st2" width="30.7" height="59.7"/>
	
		<rect id="XMLID_3136_" x="1020.3" y="107" transform="matrix(-0.9922 0.1247 -0.1247 -0.9922 2107.8359 147.6105)" class="st2" width="58.1" height="65.5"/>
	
		<rect id="XMLID_3135_" x="969.4" y="114.4" transform="matrix(-0.9922 0.1247 -0.1247 -0.9922 1990.8943 169.7955)" class="st2" width="41.5" height="65.5"/>
	
		<rect id="XMLID_3134_" x="929.2" y="120.1" transform="matrix(-0.9922 0.1247 -0.1247 -0.9922 1900.7736 186.8922)" class="st2" width="30.7" height="65.5"/>
	
		<rect id="XMLID_3133_" x="1010.6" y="27.3" transform="matrix(-0.9922 0.1247 -0.1247 -0.9922 2078.8882 -4.9788)" class="st2" width="58.1" height="70.5"/>
	
		<rect id="XMLID_3132_" x="959.7" y="34.7" transform="matrix(-0.9922 0.1247 -0.1247 -0.9922 1961.9467 17.2061)" class="st2" width="41.5" height="70.5"/>
	
		<rect id="XMLID_3131_" x="919.5" y="40.5" transform="matrix(-0.9922 0.1247 -0.1247 -0.9922 1871.8259 34.3029)" class="st2" width="30.7" height="70.5"/>
	
		<rect id="XMLID_3130_" x="1000.1" y="-57.8" transform="matrix(-0.9922 0.1247 -0.1247 -0.9922 2047.7623 -169.0503)" class="st2" width="58.1" height="74.7"/>
	
		<rect id="XMLID_3129_" x="949.3" y="-50.3" transform="matrix(-0.9922 0.1247 -0.1247 -0.9922 1930.8208 -146.8654)" class="st2" width="41.5" height="74.7"/>
	
		<rect id="XMLID_3128_" x="909" y="-44.6" transform="matrix(-0.9922 0.1247 -0.1247 -0.9922 1840.7 -129.7686)" class="st2" width="30.7" height="74.7"/>
	
		<rect id="XMLID_3127_" x="988.4" y="-159.4" transform="matrix(-0.9922 0.1247 -0.1247 -0.9922 2012.7817 -353.4404)" class="st2" width="58.1" height="91.2"/>
	
		<rect id="XMLID_3126_" x="937.5" y="-151.9" transform="matrix(-0.9922 0.1247 -0.1247 -0.9922 1895.8402 -331.2555)" class="st2" width="41.5" height="91.2"/>
	
		<rect id="XMLID_3125_" x="897.3" y="-146.2" transform="matrix(-0.9922 0.1247 -0.1247 -0.9922 1805.7195 -314.1588)" class="st2" width="30.7" height="91.2"/>
	
		<rect id="XMLID_3124_" x="974.6" y="-277.4" transform="matrix(-0.9922 0.1247 -0.1247 -0.9922 1971.6338 -570.3405)" class="st2" width="58.1" height="107.8"/>
	
		<rect id="XMLID_3123_" x="923.7" y="-270" transform="matrix(-0.9922 0.1247 -0.1247 -0.9922 1854.6923 -548.1556)" class="st2" width="41.5" height="107.8"/>
	
		<rect id="XMLID_3122_" x="883.5" y="-264.2" transform="matrix(-0.9922 0.1247 -0.1247 -0.9922 1764.5714 -531.0588)" class="st2" width="30.7" height="107.8"/>
</g>
<rect id="XMLID_3851_" y="-1" class="st3" width="1920" height="1080"/>
<g id="XMLID_2901_">
	<defs>
		<rect id="XMLID_2902_" y="-1" width="1920" height="1080"/>
	</defs>
	<clipPath id="XMLID_2_">
		<use xlink:href="#XMLID_2902_"  style="overflow:visible;"/>
	</clipPath>
</g>
</svg>
